<?xml version="1.0" encoding="UTF-8" standalone="no"?>
<!DOCTYPE svg PUBLIC "-//W3C//DTD SVG 1.1//EN"
 "http://www.w3.org/Graphics/SVG/1.1/DTD/svg11.dtd">
<!-- Generated by graphviz version 2.50.0 (0)
 -->
<!-- Title: inheritance894d63088a Pages: 1 -->
<svg width="833pt" height="856pt"
 viewBox="0.00 0.00 832.57 856.00" xmlns="http://www.w3.org/2000/svg" xmlns:xlink="http://www.w3.org/1999/xlink">
<g id="graph0" class="graph" transform="scale(1 1) rotate(0) translate(4 852)">
<title>inheritance894d63088a</title>
<!-- AdditionRate -->
<g id="node1" class="node">
<title>AdditionRate</title>
<g id="a_node1"><a xlink:href="../Rate_Curves/ratecurves.html#ratecurves.AdditionRate" xlink:title="AdditionRate" target="_top">
<ellipse fill="white" stroke="#1e90ff" cx="244.4" cy="-425" rx="46.85" ry="27"/>
<text text-anchor="middle" x="244.4" y="-421.9" font-family="Vera Sans, DejaVu Sans, Liberation Sans, Arial, Helvetica, sans" font-size="12.00">AdditionRate</text>
</a>
</g>
</g>
<!-- MultiRate -->
<g id="node2" class="node">
<title>MultiRate</title>
<g id="a_node2"><a xlink:href="../Rate_Curves/ratecurves.html#ratecurves.MultiRate" xlink:title="MultiRate" target="_top">
<ellipse fill="white" stroke="#1e90ff" cx="67.84" cy="-443" rx="36.81" ry="27"/>
<text text-anchor="middle" x="67.84" y="-439.9" font-family="Vera Sans, DejaVu Sans, Liberation Sans, Arial, Helvetica, sans" font-size="12.00">MultiRate</text>
</a>
</g>
</g>
<!-- MultiRate&#45;&gt;AdditionRate -->
<g id="edge1" class="edge">
<title>MultiRate&#45;&gt;AdditionRate</title>
<path fill="none" stroke="black" stroke-width="0.5" d="M104.59,-439.31C130.13,-436.68 164.84,-433.1 193.17,-430.18"/>
<polygon fill="black" stroke="black" stroke-width="0.5" points="193.58,-431.9 198.38,-429.64 193.23,-428.41 193.58,-431.9"/>
</g>
<!-- Rate -->
<g id="node8" class="node">
<title>Rate</title>
<g id="a_node8"><a xlink:href="../Rate_Curves/ratecurves.html#ratecurves.Rate" xlink:title="Rate" target="_top">
<ellipse fill="white" stroke="#1e90ff" cx="244.4" cy="-353" rx="27" ry="27"/>
<text text-anchor="middle" x="244.4" y="-349.9" font-family="Vera Sans, DejaVu Sans, Liberation Sans, Arial, Helvetica, sans" font-size="12.00">Rate</text>
</a>
</g>
</g>
<!-- MultiRate&#45;&gt;Rate -->
<g id="edge19" class="edge">
<title>MultiRate&#45;&gt;Rate</title>
<path fill="none" stroke="black" stroke-width="0.5" d="M98.47,-427.26C118.97,-416.41 146.92,-401.71 171.68,-389 185.92,-381.69 201.82,-373.69 215.03,-367.09"/>
<polygon fill="black" stroke="black" stroke-width="0.5" points="216.08,-368.53 219.77,-364.73 214.51,-365.39 216.08,-368.53"/>
</g>
<!-- DifferenceRate -->
<g id="node11" class="node">
<title>DifferenceRate</title>
<g id="a_node11"><a xlink:href="../Rate_Curves/ratecurves.html#ratecurves.DifferenceRate" xlink:title="DifferenceRate" target="_top">
<ellipse fill="white" stroke="#1e90ff" cx="244.4" cy="-497" rx="52.79" ry="27"/>
<text text-anchor="middle" x="244.4" y="-493.9" font-family="Vera Sans, DejaVu Sans, Liberation Sans, Arial, Helvetica, sans" font-size="12.00">DifferenceRate</text>
</a>
</g>
</g>
<!-- MultiRate&#45;&gt;DifferenceRate -->
<g id="edge4" class="edge">
<title>MultiRate&#45;&gt;DifferenceRate</title>
<path fill="none" stroke="black" stroke-width="0.5" d="M102.09,-453.28C127.99,-461.3 164.36,-472.55 193.72,-481.63"/>
<polygon fill="black" stroke="black" stroke-width="0.5" points="193.44,-483.38 198.74,-483.18 194.48,-480.03 193.44,-483.38"/>
</g>
<!-- ProductRate -->
<g id="node24" class="node">
<title>ProductRate</title>
<g id="a_node24"><a xlink:href="../Rate_Curves/ratecurves.html#ratecurves.ProductRate" xlink:title="ProductRate" target="_top">
<ellipse fill="white" stroke="#1e90ff" cx="244.4" cy="-569" rx="45.09" ry="27"/>
<text text-anchor="middle" x="244.4" y="-565.9" font-family="Vera Sans, DejaVu Sans, Liberation Sans, Arial, Helvetica, sans" font-size="12.00">ProductRate</text>
</a>
</g>
</g>
<!-- MultiRate&#45;&gt;ProductRate -->
<g id="edge18" class="edge">
<title>MultiRate&#45;&gt;ProductRate</title>
<path fill="none" stroke="black" stroke-width="0.5" d="M100.49,-456.08C112.36,-461.95 125.45,-469.68 135.68,-479 157.01,-498.42 150.07,-513.89 171.68,-533 180.37,-540.68 190.99,-547.18 201.37,-552.44"/>
<polygon fill="black" stroke="black" stroke-width="0.5" points="200.86,-554.14 206.12,-554.77 202.4,-551 200.86,-554.14"/>
</g>
<!-- CDSRate -->
<g id="node3" class="node">
<title>CDSRate</title>
<g id="a_node3"><a xlink:href="../Rate_Curves/ratecurves.html#ratecurves.CDSRate" xlink:title="CDSRate" target="_top">
<ellipse fill="white" stroke="#1e90ff" cx="67.84" cy="-515" rx="36.81" ry="27"/>
<text text-anchor="middle" x="67.84" y="-511.9" font-family="Vera Sans, DejaVu Sans, Liberation Sans, Arial, Helvetica, sans" font-size="12.00">CDSRate</text>
</a>
</g>
</g>
<!-- CMSDiffRate -->
<g id="node4" class="node">
<title>CMSDiffRate</title>
<g id="a_node4"><a xlink:href="../Rate_Curves/ratecurves.html#ratecurves.CMSDiffRate" xlink:title="CMSDiffRate" target="_top">
<ellipse fill="white" stroke="#1e90ff" cx="67.84" cy="-587" rx="47.43" ry="27"/>
<text text-anchor="middle" x="67.84" y="-583.9" font-family="Vera Sans, DejaVu Sans, Liberation Sans, Arial, Helvetica, sans" font-size="12.00">CMSDiffRate</text>
</a>
</g>
</g>
<!-- CMSRate -->
<g id="node5" class="node">
<title>CMSRate</title>
<g id="a_node5"><a xlink:href="../Rate_Curves/ratecurves.html#ratecurves.CMSRate" xlink:title="CMSRate" target="_top">
<ellipse fill="white" stroke="#1e90ff" cx="67.84" cy="-659" rx="37.4" ry="27"/>
<text text-anchor="middle" x="67.84" y="-655.9" font-family="Vera Sans, DejaVu Sans, Liberation Sans, Arial, Helvetica, sans" font-size="12.00">CMSRate</text>
</a>
</g>
</g>
<!-- CompoundingCurve -->
<g id="node6" class="node">
<title>CompoundingCurve</title>
<g id="a_node6"><a xlink:href="../Rate_Curves/ratecurves.html#ratecurves.CompoundingCurve" xlink:title="CompoundingCurve" target="_top">
<ellipse fill="white" stroke="#1e90ff" cx="67.84" cy="-731" rx="67.68" ry="27"/>
<text text-anchor="middle" x="67.84" y="-727.9" font-family="Vera Sans, DejaVu Sans, Liberation Sans, Arial, Helvetica, sans" font-size="12.00">CompoundingCurve</text>
</a>
</g>
</g>
<!-- SRCInAdvance -->
<g id="node25" class="node">
<title>SRCInAdvance</title>
<g id="a_node25"><a xlink:href="../Rate_Curves/ratecurves.html#ratecurves.SRCInAdvance" xlink:title="SRCInAdvance" target="_top">
<ellipse fill="white" stroke="#1e90ff" cx="244.4" cy="-749" rx="54.05" ry="27"/>
<text text-anchor="middle" x="244.4" y="-745.9" font-family="Vera Sans, DejaVu Sans, Liberation Sans, Arial, Helvetica, sans" font-size="12.00">SRCInAdvance</text>
</a>
</g>
</g>
<!-- CompoundingCurve&#45;&gt;SRCInAdvance -->
<g id="edge20" class="edge">
<title>CompoundingCurve&#45;&gt;SRCInAdvance</title>
<path fill="none" stroke="black" stroke-width="0.5" d="M133.84,-737.7C150.97,-739.47 169.33,-741.36 186.03,-743.08"/>
<polygon fill="black" stroke="black" stroke-width="0.5" points="186,-744.84 191.15,-743.61 186.36,-741.36 186,-744.84"/>
</g>
<!-- SRCLookback -->
<g id="node26" class="node">
<title>SRCLookback</title>
<g id="a_node26"><a xlink:href="../Rate_Curves/ratecurves.html#ratecurves.SRCLookback" xlink:title="SRCLookback" target="_top">
<ellipse fill="white" stroke="#1e90ff" cx="244.4" cy="-677" rx="51.62" ry="27"/>
<text text-anchor="middle" x="244.4" y="-673.9" font-family="Vera Sans, DejaVu Sans, Liberation Sans, Arial, Helvetica, sans" font-size="12.00">SRCLookback</text>
</a>
</g>
</g>
<!-- CompoundingCurve&#45;&gt;SRCLookback -->
<g id="edge21" class="edge">
<title>CompoundingCurve&#45;&gt;SRCLookback</title>
<path fill="none" stroke="black" stroke-width="0.5" d="M122.16,-714.5C145.19,-707.38 171.95,-699.1 194.46,-692.14"/>
<polygon fill="black" stroke="black" stroke-width="0.5" points="195.23,-693.73 199.49,-690.58 194.2,-690.39 195.23,-693.73"/>
</g>
<!-- CumulativeRate -->
<g id="node7" class="node">
<title>CumulativeRate</title>
<g id="a_node7"><a xlink:href="../Rate_Curves/ratecurves.html#ratecurves.CumulativeRate" xlink:title="CumulativeRate" target="_top">
<ellipse fill="white" stroke="#1e90ff" cx="421.51" cy="-226" rx="55.8" ry="27"/>
<text text-anchor="middle" x="421.51" y="-222.9" font-family="Vera Sans, DejaVu Sans, Liberation Sans, Arial, Helvetica, sans" font-size="12.00">CumulativeRate</text>
</a>
</g>
</g>
<!-- GlobalFloorRate -->
<g id="node15" class="node">
<title>GlobalFloorRate</title>
<g id="a_node15"><a xlink:href="../Rate_Curves/ratecurves.html#ratecurves.GlobalFloorRate" xlink:title="GlobalFloorRate" target="_top">
<ellipse fill="white" stroke="#1e90ff" cx="586.68" cy="-226" rx="56.97" ry="27"/>
<text text-anchor="middle" x="586.68" y="-222.9" font-family="Vera Sans, DejaVu Sans, Liberation Sans, Arial, Helvetica, sans" font-size="12.00">GlobalFloorRate</text>
</a>
</g>
</g>
<!-- CumulativeRate&#45;&gt;GlobalFloorRate -->
<g id="edge8" class="edge">
<title>CumulativeRate&#45;&gt;GlobalFloorRate</title>
<path fill="none" stroke="black" stroke-width="0.5" d="M477.75,-226C492.79,-226 509.16,-226 524.5,-226"/>
<polygon fill="black" stroke="black" stroke-width="0.5" points="524.66,-227.75 529.66,-226 524.66,-224.25 524.66,-227.75"/>
</g>
<!-- TARNRate -->
<g id="node28" class="node">
<title>TARNRate</title>
<g id="a_node28"><a xlink:href="../Rate_Curves/ratecurves.html#ratecurves.TARNRate" xlink:title="TARNRate" target="_top">
<ellipse fill="white" stroke="#1e90ff" cx="586.68" cy="-370" rx="40.91" ry="27"/>
<text text-anchor="middle" x="586.68" y="-366.9" font-family="Vera Sans, DejaVu Sans, Liberation Sans, Arial, Helvetica, sans" font-size="12.00">TARNRate</text>
</a>
</g>
</g>
<!-- CumulativeRate&#45;&gt;TARNRate -->
<g id="edge26" class="edge">
<title>CumulativeRate&#45;&gt;TARNRate</title>
<path fill="none" stroke="black" stroke-width="0.5" d="M462.81,-244.52C472.1,-249.6 481.67,-255.51 489.89,-262 519.35,-285.24 547.1,-318.22 565.08,-341.61"/>
<polygon fill="black" stroke="black" stroke-width="0.5" points="563.9,-342.95 568.32,-345.86 566.68,-340.83 563.9,-342.95"/>
</g>
<!-- Rate&#45;&gt;CumulativeRate -->
<g id="edge2" class="edge">
<title>Rate&#45;&gt;CumulativeRate</title>
<path fill="none" stroke="black" stroke-width="0.5" d="M264.65,-334.57C285.46,-315.17 320.11,-284.4 353.13,-262 360.63,-256.91 368.93,-251.97 377.06,-247.47"/>
<polygon fill="black" stroke="black" stroke-width="0.5" points="378.01,-248.95 381.56,-245.01 376.33,-245.87 378.01,-248.95"/>
</g>
<!-- ForwardRate -->
<g id="node13" class="node">
<title>ForwardRate</title>
<g id="a_node13"><a xlink:href="../Rate_Curves/ratecurves.html#ratecurves.ForwardRate" xlink:title="ForwardRate" target="_top">
<ellipse fill="white" stroke="#1e90ff" cx="421.51" cy="-442" rx="46.85" ry="27"/>
<text text-anchor="middle" x="421.51" y="-438.9" font-family="Vera Sans, DejaVu Sans, Liberation Sans, Arial, Helvetica, sans" font-size="12.00">ForwardRate</text>
</a>
</g>
</g>
<!-- Rate&#45;&gt;ForwardRate -->
<g id="edge5" class="edge">
<title>Rate&#45;&gt;ForwardRate</title>
<path fill="none" stroke="black" stroke-width="0.5" d="M269.01,-364.79C283.01,-371.79 301.1,-380.87 317.13,-389 338.35,-399.77 361.98,-411.87 381.28,-421.79"/>
<polygon fill="black" stroke="black" stroke-width="0.5" points="380.84,-423.53 386.09,-424.26 382.44,-420.42 380.84,-423.53"/>
</g>
<!-- GSCFRate -->
<g id="node16" class="node">
<title>GSCFRate</title>
<g id="a_node16"><a xlink:href="../Rate_Curves/ratecurves.html#ratecurves.GSCFRate" xlink:title="GSCFRate" target="_top">
<ellipse fill="white" stroke="#1e90ff" cx="421.51" cy="-298" rx="41.49" ry="27"/>
<text text-anchor="middle" x="421.51" y="-294.9" font-family="Vera Sans, DejaVu Sans, Liberation Sans, Arial, Helvetica, sans" font-size="12.00">GSCFRate</text>
</a>
</g>
</g>
<!-- Rate&#45;&gt;GSCFRate -->
<g id="edge7" class="edge">
<title>Rate&#45;&gt;GSCFRate</title>
<path fill="none" stroke="black" stroke-width="0.5" d="M270.49,-345.12C298.8,-336.23 345.27,-321.63 379,-311.04"/>
<polygon fill="black" stroke="black" stroke-width="0.5" points="379.63,-312.67 383.88,-309.51 378.59,-309.33 379.63,-312.67"/>
</g>
<!-- KnockOutRate -->
<g id="node17" class="node">
<title>KnockOutRate</title>
<g id="a_node17"><a xlink:href="../Rate_Curves/ratecurves.html#ratecurves.KnockOutRate" xlink:title="KnockOutRate" target="_top">
<ellipse fill="white" stroke="#1e90ff" cx="421.51" cy="-370" rx="51.62" ry="27"/>
<text text-anchor="middle" x="421.51" y="-366.9" font-family="Vera Sans, DejaVu Sans, Liberation Sans, Arial, Helvetica, sans" font-size="12.00">KnockOutRate</text>
</a>
</g>
</g>
<!-- Rate&#45;&gt;KnockOutRate -->
<g id="edge9" class="edge">
<title>Rate&#45;&gt;KnockOutRate</title>
<path fill="none" stroke="black" stroke-width="0.5" d="M271.62,-355.55C296.24,-357.94 333.87,-361.59 365.14,-364.62"/>
<polygon fill="black" stroke="black" stroke-width="0.5" points="365.35,-366.4 370.5,-365.14 365.69,-362.92 365.35,-366.4"/>
</g>
<!-- SwapRate -->
<g id="node21" class="node">
<title>SwapRate</title>
<g id="a_node21"><a xlink:href="../Rate_Curves/ratecurves.html#ratecurves.SwapRate" xlink:title="SwapRate" target="_top">
<ellipse fill="white" stroke="#1e90ff" cx="421.51" cy="-154" rx="39.74" ry="27"/>
<text text-anchor="middle" x="421.51" y="-150.9" font-family="Vera Sans, DejaVu Sans, Liberation Sans, Arial, Helvetica, sans" font-size="12.00">SwapRate</text>
</a>
</g>
</g>
<!-- Rate&#45;&gt;SwapRate -->
<g id="edge23" class="edge">
<title>Rate&#45;&gt;SwapRate</title>
<path fill="none" stroke="black" stroke-width="0.5" d="M256.6,-328.73C273.46,-294.29 308.24,-230.88 353.13,-190 361.72,-182.18 372.32,-175.49 382.55,-170.09"/>
<polygon fill="black" stroke="black" stroke-width="0.5" points="383.56,-171.53 387.21,-167.69 381.96,-168.42 383.56,-171.53"/>
</g>
<!-- PathDependentRate -->
<g id="node23" class="node">
<title>PathDependentRate</title>
<g id="a_node23"><a xlink:href="../Rate_Curves/ratecurves.html#ratecurves.PathDependentRate" xlink:title="PathDependentRate" target="_top">
<ellipse fill="white" stroke="#1e90ff" cx="421.51" cy="-514" rx="68.27" ry="27"/>
<text text-anchor="middle" x="421.51" y="-510.9" font-family="Vera Sans, DejaVu Sans, Liberation Sans, Arial, Helvetica, sans" font-size="12.00">PathDependentRate</text>
</a>
</g>
</g>
<!-- Rate&#45;&gt;PathDependentRate -->
<g id="edge17" class="edge">
<title>Rate&#45;&gt;PathDependentRate</title>
<path fill="none" stroke="black" stroke-width="0.5" d="M270.47,-360.51C285.7,-366.19 304.57,-375.38 317.13,-389 346.06,-420.37 324.6,-446.27 353.13,-478 357.72,-483.11 363.21,-487.62 369.06,-491.58"/>
<polygon fill="black" stroke="black" stroke-width="0.5" points="368.43,-493.26 373.58,-494.49 370.32,-490.31 368.43,-493.26"/>
</g>
<!-- DeterministicVolAsset -->
<g id="node9" class="node">
<title>DeterministicVolAsset</title>
<g id="a_node9"><a xlink:href="../../pypricing.data.html#data.underlyings.DeterministicVolAsset" xlink:title="date format: %Y%m%d" target="_top">
<ellipse fill="white" stroke="#1e90ff" cx="244.4" cy="-55" rx="72.95" ry="27"/>
<text text-anchor="middle" x="244.4" y="-51.9" font-family="Vera Sans, DejaVu Sans, Liberation Sans, Arial, Helvetica, sans" font-size="12.00">DeterministicVolAsset</text>
</a>
</g>
</g>
<!-- LognormalAsset -->
<g id="node18" class="node">
<title>LognormalAsset</title>
<g id="a_node18"><a xlink:href="../../pypricing.data.html#data.underlyings.LognormalAsset" xlink:title="A class representing a Lognormal Asset, derived from both the NormalAsset and DeterministicVolAsset classes." target="_top">
<ellipse fill="white" stroke="#1e90ff" cx="586.68" cy="-27" rx="56.39" ry="27"/>
<text text-anchor="middle" x="586.68" y="-23.9" font-family="Vera Sans, DejaVu Sans, Liberation Sans, Arial, Helvetica, sans" font-size="12.00">LognormalAsset</text>
</a>
</g>
</g>
<!-- DeterministicVolAsset&#45;&gt;LognormalAsset -->
<g id="edge11" class="edge">
<title>DeterministicVolAsset&#45;&gt;LognormalAsset</title>
<path fill="none" stroke="black" stroke-width="0.5" d="M315.52,-49.12C328.04,-48.08 340.97,-47 353.13,-46 411.75,-41.16 478.69,-35.69 525.65,-31.87"/>
<polygon fill="black" stroke="black" stroke-width="0.5" points="525.86,-33.61 530.7,-31.46 525.58,-30.12 525.86,-33.61"/>
</g>
<!-- NormalAsset -->
<g id="node19" class="node">
<title>NormalAsset</title>
<g id="a_node19"><a xlink:href="../../pypricing.data.html#data.underlyings.NormalAsset" xlink:title="A class representing a Normal Asset, derived from the DeterministicVolAsset class." target="_top">
<ellipse fill="white" stroke="#1e90ff" cx="421.51" cy="-82" rx="46.85" ry="27"/>
<text text-anchor="middle" x="421.51" y="-78.9" font-family="Vera Sans, DejaVu Sans, Liberation Sans, Arial, Helvetica, sans" font-size="12.00">NormalAsset</text>
</a>
</g>
</g>
<!-- DeterministicVolAsset&#45;&gt;NormalAsset -->
<g id="edge14" class="edge">
<title>DeterministicVolAsset&#45;&gt;NormalAsset</title>
<path fill="none" stroke="black" stroke-width="0.5" d="M312.1,-65.28C331.72,-68.31 352.81,-71.56 371.13,-74.39"/>
<polygon fill="black" stroke="black" stroke-width="0.5" points="371.02,-76.14 376.22,-75.17 371.55,-72.68 371.02,-76.14"/>
</g>
<!-- Underlying -->
<g id="node10" class="node">
<title>Underlying</title>
<g id="a_node10"><a xlink:href="../../pypricing.data.html#data.underlyings.Underlying" xlink:title="Underlying" target="_top">
<ellipse fill="white" stroke="#1e90ff" cx="67.84" cy="-55" rx="40.91" ry="27"/>
<text text-anchor="middle" x="67.84" y="-51.9" font-family="Vera Sans, DejaVu Sans, Liberation Sans, Arial, Helvetica, sans" font-size="12.00">Underlying</text>
</a>
</g>
</g>
<!-- Underlying&#45;&gt;DeterministicVolAsset -->
<g id="edge3" class="edge">
<title>Underlying&#45;&gt;DeterministicVolAsset</title>
<path fill="none" stroke="black" stroke-width="0.5" d="M108.89,-55C126.06,-55 146.71,-55 166.63,-55"/>
<polygon fill="black" stroke="black" stroke-width="0.5" points="166.67,-56.75 171.67,-55 166.67,-53.25 166.67,-56.75"/>
</g>
<!-- FixedTenorRate -->
<g id="node12" class="node">
<title>FixedTenorRate</title>
<g id="a_node12"><a xlink:href="../Rate_Curves/ratecurves.html#ratecurves.FixedTenorRate" xlink:title="FixedTenorRate" target="_top">
<ellipse fill="white" stroke="#1e90ff" cx="67.84" cy="-821" rx="55.22" ry="27"/>
<text text-anchor="middle" x="67.84" y="-817.9" font-family="Vera Sans, DejaVu Sans, Liberation Sans, Arial, Helvetica, sans" font-size="12.00">FixedTenorRate</text>
</a>
</g>
</g>
<!-- ShortRate -->
<g id="node27" class="node">
<title>ShortRate</title>
<g id="a_node27"><a xlink:href="../Rate_Curves/ratecurves.html#ratecurves.ShortRate" xlink:title="ShortRate" target="_top">
<ellipse fill="white" stroke="#1e90ff" cx="244.4" cy="-821" rx="38.57" ry="27"/>
<text text-anchor="middle" x="244.4" y="-817.9" font-family="Vera Sans, DejaVu Sans, Liberation Sans, Arial, Helvetica, sans" font-size="12.00">ShortRate</text>
</a>
</g>
</g>
<!-- FixedTenorRate&#45;&gt;ShortRate -->
<g id="edge22" class="edge">
<title>FixedTenorRate&#45;&gt;ShortRate</title>
<path fill="none" stroke="black" stroke-width="0.5" d="M123.59,-821C148.41,-821 177.33,-821 200.53,-821"/>
<polygon fill="black" stroke="black" stroke-width="0.5" points="200.7,-822.75 205.7,-821 200.7,-819.25 200.7,-822.75"/>
</g>
<!-- GFlooredRate -->
<g id="node14" class="node">
<title>GFlooredRate</title>
<g id="a_node14"><a xlink:href="../Rate_Curves/ratecurves.html#ratecurves.GFlooredRate" xlink:title="GFlooredRate" target="_top">
<ellipse fill="white" stroke="#1e90ff" cx="754.02" cy="-226" rx="49.86" ry="27"/>
<text text-anchor="middle" x="754.02" y="-222.9" font-family="Vera Sans, DejaVu Sans, Liberation Sans, Arial, Helvetica, sans" font-size="12.00">GFlooredRate</text>
</a>
</g>
</g>
<!-- GlobalFloorRate&#45;&gt;GFlooredRate -->
<g id="edge6" class="edge">
<title>GlobalFloorRate&#45;&gt;GFlooredRate</title>
<path fill="none" stroke="black" stroke-width="0.5" d="M644.12,-226C661.75,-226 681.16,-226 698.65,-226"/>
<polygon fill="black" stroke="black" stroke-width="0.5" points="699.01,-227.75 704.01,-226 699.01,-224.25 699.01,-227.75"/>
</g>
<!-- KnockOutRate&#45;&gt;TARNRate -->
<g id="edge25" class="edge">
<title>KnockOutRate&#45;&gt;TARNRate</title>
<path fill="none" stroke="black" stroke-width="0.5" d="M473.24,-370C494.81,-370 519.74,-370 540.64,-370"/>
<polygon fill="black" stroke="black" stroke-width="0.5" points="540.86,-371.75 545.86,-370 540.86,-368.25 540.86,-371.75"/>
</g>
<!-- LognormalSwapRate -->
<g id="node20" class="node">
<title>LognormalSwapRate</title>
<g id="a_node20"><a xlink:href="../Rate_Curves/ratecurves.html#ratecurves.LognormalSwapRate" xlink:title="LognormalSwapRate" target="_top">
<ellipse fill="white" stroke="#1e90ff" cx="754.02" cy="-91" rx="70.61" ry="27"/>
<text text-anchor="middle" x="754.02" y="-87.9" font-family="Vera Sans, DejaVu Sans, Liberation Sans, Arial, Helvetica, sans" font-size="12.00">LognormalSwapRate</text>
</a>
</g>
</g>
<!-- LognormalAsset&#45;&gt;LognormalSwapRate -->
<g id="edge13" class="edge">
<title>LognormalAsset&#45;&gt;LognormalSwapRate</title>
<path fill="none" stroke="black" stroke-width="0.5" d="M631.12,-43.82C651.85,-51.84 676.85,-61.52 698.81,-70.02"/>
<polygon fill="black" stroke="black" stroke-width="0.5" points="698.44,-71.75 703.74,-71.92 699.71,-68.49 698.44,-71.75"/>
</g>
<!-- NormalAsset&#45;&gt;LognormalAsset -->
<g id="edge10" class="edge">
<title>NormalAsset&#45;&gt;LognormalAsset</title>
<path fill="none" stroke="black" stroke-width="0.5" d="M462.43,-68.55C484.36,-61.15 511.78,-51.91 535.19,-44.02"/>
<polygon fill="black" stroke="black" stroke-width="0.5" points="535.94,-45.61 540.12,-42.36 534.83,-42.3 535.94,-45.61"/>
</g>
<!-- NormalSwapRate -->
<g id="node22" class="node">
<title>NormalSwapRate</title>
<g id="a_node22"><a xlink:href="../Rate_Curves/ratecurves.html#ratecurves.NormalSwapRate" xlink:title="NormalSwapRate" target="_top">
<ellipse fill="white" stroke="#1e90ff" cx="586.68" cy="-99" rx="60.57" ry="27"/>
<text text-anchor="middle" x="586.68" y="-95.9" font-family="Vera Sans, DejaVu Sans, Liberation Sans, Arial, Helvetica, sans" font-size="12.00">NormalSwapRate</text>
</a>
</g>
</g>
<!-- NormalAsset&#45;&gt;NormalSwapRate -->
<g id="edge16" class="edge">
<title>NormalAsset&#45;&gt;NormalSwapRate</title>
<path fill="none" stroke="black" stroke-width="0.5" d="M467.53,-86.69C484.43,-88.45 503.97,-90.49 522.23,-92.39"/>
<polygon fill="black" stroke="black" stroke-width="0.5" points="522.19,-94.14 527.34,-92.92 522.55,-90.66 522.19,-94.14"/>
</g>
<!-- SwapRate&#45;&gt;LognormalSwapRate -->
<g id="edge12" class="edge">
<title>SwapRate&#45;&gt;LognormalSwapRate</title>
<path fill="none" stroke="black" stroke-width="0.5" d="M461.31,-154.35C506.61,-153.93 583.5,-150.63 647.46,-135 667.03,-130.22 687.67,-122.32 705.46,-114.52"/>
<polygon fill="black" stroke="black" stroke-width="0.5" points="706.53,-115.95 710.39,-112.32 705.11,-112.75 706.53,-115.95"/>
</g>
<!-- SwapRate&#45;&gt;NormalSwapRate -->
<g id="edge15" class="edge">
<title>SwapRate&#45;&gt;NormalSwapRate</title>
<path fill="none" stroke="black" stroke-width="0.5" d="M457.52,-142.2C479.46,-134.8 508.17,-125.13 532.86,-116.81"/>
<polygon fill="black" stroke="black" stroke-width="0.5" points="533.56,-118.42 537.74,-115.16 532.44,-115.1 533.56,-118.42"/>
</g>
<!-- ProductRate&#45;&gt;TARNRate -->
<g id="edge24" class="edge">
<title>ProductRate&#45;&gt;TARNRate</title>
<path fill="none" stroke="black" stroke-width="0.5" d="M287.77,-577.23C339.84,-584.93 428.81,-589.99 489.89,-550 541.98,-515.9 567.7,-443.72 578.71,-401.86"/>
<polygon fill="black" stroke="black" stroke-width="0.5" points="580.43,-402.18 579.98,-396.91 577.04,-401.31 580.43,-402.18"/>
</g>
</g>
</svg>
