<?xml version="1.0" encoding="UTF-8" standalone="no"?>
<!DOCTYPE svg PUBLIC "-//W3C//DTD SVG 1.1//EN"
 "http://www.w3.org/Graphics/SVG/1.1/DTD/svg11.dtd">
<!-- Generated by graphviz version 8.0.5 (20230430.1635)
 -->
<!-- Title: inheritance10caa3972d Pages: 1 -->
<svg width="514pt" height="494pt"
 viewBox="0.00 0.00 514.21 494.00" xmlns="http://www.w3.org/2000/svg" xmlns:xlink="http://www.w3.org/1999/xlink">
<g id="graph0" class="graph" transform="scale(1 1) rotate(0) translate(4 490)">
<title>inheritance10caa3972d</title>
<!-- ABC -->
<g id="node1" class="node">
<title>ABC</title>
<g id="a_node1"><a xlink:title="Helper class that provides a standard way to create an ABC using">
<ellipse fill="white" stroke="#1e90ff" cx="27" cy="-279" rx="27" ry="27"/>
<text text-anchor="middle" x="27" y="-274.35" font-family="Vera Sans, DejaVu Sans, Liberation Sans, Arial, Helvetica, sans" font-size="12.00">ABC</text>
</a>
</g>
</g>
<!-- DiscountCurve -->
<g id="node6" class="node">
<title>DiscountCurve</title>
<g id="a_node6"><a xlink:href="../Discount_curves/discount_curves.html#discount_curves.DiscountCurve" xlink:title="DiscountCurve" target="_top">
<ellipse fill="white" stroke="#1e90ff" cx="140.42" cy="-279" rx="50.42" ry="27"/>
<text text-anchor="middle" x="140.42" y="-274.35" font-family="Vera Sans, DejaVu Sans, Liberation Sans, Arial, Helvetica, sans" font-size="12.00">DiscountCurve</text>
</a>
</g>
</g>
<!-- ABC&#45;&gt;DiscountCurve -->
<g id="edge8" class="edge">
<title>ABC&#45;&gt;DiscountCurve</title>
<path fill="none" stroke="black" stroke-width="0.5" d="M54.4,-279C63.23,-279 73.42,-279 83.62,-279"/>
<polygon fill="black" stroke="black" stroke-width="0.5" points="84.61,-280.75 89.61,-279 84.61,-277.25 84.61,-280.75"/>
</g>
<!-- CDSCurve -->
<g id="node2" class="node">
<title>CDSCurve</title>
<g id="a_node2"><a xlink:href="../Discount_curves/discount_curves.html#discount_curves.CDSCurve" xlink:title="CDSCurve" target="_top">
<ellipse fill="white" stroke="#1e90ff" cx="429.63" cy="-459" rx="39.79" ry="27"/>
<text text-anchor="middle" x="429.63" y="-454.35" font-family="Vera Sans, DejaVu Sans, Liberation Sans, Arial, Helvetica, sans" font-size="12.00">CDSCurve</text>
</a>
</g>
</g>
<!-- LCExpCurve -->
<g id="node3" class="node">
<title>LCExpCurve</title>
<g id="a_node3"><a xlink:href="../Discount_curves/discount_curves.html#discount_curves.LCExpCurve" xlink:title="A subclass of DiscountCurve that represents a locally constant exponential discount curve. That is, basically (below for more details)," target="_top">
<ellipse fill="white" stroke="#1e90ff" cx="271.94" cy="-369" rx="45.1" ry="27"/>
<text text-anchor="middle" x="271.94" y="-364.35" font-family="Vera Sans, DejaVu Sans, Liberation Sans, Arial, Helvetica, sans" font-size="12.00">LCExpCurve</text>
</a>
</g>
</g>
<!-- LCExpCurve&#45;&gt;CDSCurve -->
<g id="edge1" class="edge">
<title>LCExpCurve&#45;&gt;CDSCurve</title>
<path fill="none" stroke="black" stroke-width="0.5" d="M301.57,-389.82C316.56,-400.32 335.42,-412.94 353.05,-423 364.97,-429.81 378.39,-436.5 390.58,-442.23"/>
<polygon fill="black" stroke="black" stroke-width="0.5" points="390.45,-444.1 395.72,-444.62 391.93,-440.92 390.45,-444.1"/>
</g>
<!-- CDSCurve_Allmats -->
<g id="node4" class="node">
<title>CDSCurve_Allmats</title>
<g id="a_node4"><a xlink:href="../Discount_curves/discount_curves.html#discount_curves.CDSCurve_Allmats" xlink:title="CDSCurve_Allmats" target="_top">
<ellipse fill="white" stroke="#1e90ff" cx="429.63" cy="-387" rx="64.32" ry="27"/>
<text text-anchor="middle" x="429.63" y="-382.35" font-family="Vera Sans, DejaVu Sans, Liberation Sans, Arial, Helvetica, sans" font-size="12.00">CDSCurve_Allmats</text>
</a>
</g>
</g>
<!-- LCExpCurve&#45;&gt;CDSCurve_Allmats -->
<g id="edge2" class="edge">
<title>LCExpCurve&#45;&gt;CDSCurve_Allmats</title>
<path fill="none" stroke="black" stroke-width="0.5" d="M316.72,-374.06C330.66,-375.67 346.41,-377.49 361.6,-379.25"/>
<polygon fill="black" stroke="black" stroke-width="0.5" points="362,-381.06 367.17,-379.89 362.41,-377.58 362,-381.06"/>
</g>
<!-- CorporateCurve -->
<g id="node7" class="node">
<title>CorporateCurve</title>
<g id="a_node7"><a xlink:href="../Discount_curves/discount_curves.html#discount_curves.CorporateCurve" xlink:title="CorporateCurve" target="_top">
<ellipse fill="white" stroke="#1e90ff" cx="429.63" cy="-315" rx="54.51" ry="27"/>
<text text-anchor="middle" x="429.63" y="-310.35" font-family="Vera Sans, DejaVu Sans, Liberation Sans, Arial, Helvetica, sans" font-size="12.00">CorporateCurve</text>
</a>
</g>
</g>
<!-- LCExpCurve&#45;&gt;CorporateCurve -->
<g id="edge4" class="edge">
<title>LCExpCurve&#45;&gt;CorporateCurve</title>
<path fill="none" stroke="black" stroke-width="0.5" d="M311.43,-355.65C331.76,-348.6 356.96,-339.86 378.78,-332.29"/>
<polygon fill="black" stroke="black" stroke-width="0.5" points="380.1,-333.68 384.25,-330.39 378.95,-330.38 380.1,-333.68"/>
</g>
<!-- CRDC -->
<g id="node5" class="node">
<title>CRDC</title>
<g id="a_node5"><a xlink:href="../Discount_curves/discount_curves.html#discount_curves.CRDC" xlink:title="This class represents a constant rate discount curve. It inherits from the DiscountCurve class." target="_top">
<ellipse fill="white" stroke="#1e90ff" cx="271.94" cy="-279" rx="27.93" ry="27"/>
<text text-anchor="middle" x="271.94" y="-274.35" font-family="Vera Sans, DejaVu Sans, Liberation Sans, Arial, Helvetica, sans" font-size="12.00">CRDC</text>
</a>
</g>
</g>
<!-- DiscountCurve&#45;&gt;LCExpCurve -->
<g id="edge9" class="edge">
<title>DiscountCurve&#45;&gt;LCExpCurve</title>
<path fill="none" stroke="black" stroke-width="0.5" d="M172.11,-300.33C191.64,-313.9 216.95,-331.49 237.07,-345.46"/>
<polygon fill="black" stroke="black" stroke-width="0.5" points="236.7,-347.34 241.8,-348.75 238.69,-344.46 236.7,-347.34"/>
</g>
<!-- DiscountCurve&#45;&gt;CRDC -->
<g id="edge3" class="edge">
<title>DiscountCurve&#45;&gt;CRDC</title>
<path fill="none" stroke="black" stroke-width="0.5" d="M191.12,-279C206.73,-279 223.57,-279 237.74,-279"/>
<polygon fill="black" stroke="black" stroke-width="0.5" points="238.64,-280.75 243.64,-279 238.64,-277.25 238.64,-280.75"/>
</g>
<!-- CubicDC -->
<g id="node8" class="node">
<title>CubicDC</title>
<g id="a_node8"><a xlink:href="../Discount_curves/discount_curves.html#discount_curves.CubicDC" xlink:title="Implements a discount curve using cubic spline interpolation." target="_top">
<ellipse fill="white" stroke="#1e90ff" cx="271.94" cy="-171" rx="35.29" ry="27"/>
<text text-anchor="middle" x="271.94" y="-166.35" font-family="Vera Sans, DejaVu Sans, Liberation Sans, Arial, Helvetica, sans" font-size="12.00">CubicDC</text>
</a>
</g>
</g>
<!-- DiscountCurve&#45;&gt;CubicDC -->
<g id="edge5" class="edge">
<title>DiscountCurve&#45;&gt;CubicDC</title>
<path fill="none" stroke="black" stroke-width="0.5" d="M168.57,-256.36C190.32,-238.23 220.72,-212.88 242.74,-194.52"/>
<polygon fill="black" stroke="black" stroke-width="0.5" points="244.58,-195.26 247.3,-190.71 242.34,-192.57 244.58,-195.26"/>
</g>
<!-- CubicSplineSwapCurve -->
<g id="node9" class="node">
<title>CubicSplineSwapCurve</title>
<g id="a_node9"><a xlink:href="../Discount_curves/discount_curves.html#discount_curves.CubicSplineSwapCurve" xlink:title="CubicSplineSwapCurve" target="_top">
<ellipse fill="white" stroke="#1e90ff" cx="429.63" cy="-243" rx="76.58" ry="27"/>
<text text-anchor="middle" x="429.63" y="-238.35" font-family="Vera Sans, DejaVu Sans, Liberation Sans, Arial, Helvetica, sans" font-size="12.00">CubicSplineSwapCurve</text>
</a>
</g>
</g>
<!-- CubicDC&#45;&gt;CubicSplineSwapCurve -->
<g id="edge6" class="edge">
<title>CubicDC&#45;&gt;CubicSplineSwapCurve</title>
<path fill="none" stroke="black" stroke-width="0.5" d="M302.59,-184.71C323.51,-194.39 352.09,-207.6 376.74,-219.01"/>
<polygon fill="black" stroke="black" stroke-width="0.5" points="376.67,-220.9 381.94,-221.41 378.14,-217.72 376.67,-220.9"/>
</g>
<!-- DepositCurve -->
<g id="node10" class="node">
<title>DepositCurve</title>
<g id="a_node10"><a xlink:href="../Discount_curves/discount_curves.html#discount_curves.DepositCurve" xlink:title="DepositCurve" target="_top">
<ellipse fill="white" stroke="#1e90ff" cx="429.63" cy="-171" rx="47.97" ry="27"/>
<text text-anchor="middle" x="429.63" y="-166.35" font-family="Vera Sans, DejaVu Sans, Liberation Sans, Arial, Helvetica, sans" font-size="12.00">DepositCurve</text>
</a>
</g>
</g>
<!-- CubicDC&#45;&gt;DepositCurve -->
<g id="edge7" class="edge">
<title>CubicDC&#45;&gt;DepositCurve</title>
<path fill="none" stroke="black" stroke-width="0.5" d="M307.49,-171C327.39,-171 352.83,-171 375.25,-171"/>
<polygon fill="black" stroke="black" stroke-width="0.5" points="376.18,-172.75 381.18,-171 376.18,-169.25 376.18,-172.75"/>
</g>
<!-- SWICurve -->
<g id="node11" class="node">
<title>SWICurve</title>
<g id="a_node11"><a xlink:href="../Discount_curves/discount_curves.html#discount_curves.SWICurve" xlink:title="SWICurve" target="_top">
<ellipse fill="white" stroke="#1e90ff" cx="429.63" cy="-99" rx="37.34" ry="27"/>
<text text-anchor="middle" x="429.63" y="-94.35" font-family="Vera Sans, DejaVu Sans, Liberation Sans, Arial, Helvetica, sans" font-size="12.00">SWICurve</text>
</a>
</g>
</g>
<!-- CubicDC&#45;&gt;SWICurve -->
<g id="edge10" class="edge">
<title>CubicDC&#45;&gt;SWICurve</title>
<path fill="none" stroke="black" stroke-width="0.5" d="M302.59,-157.29C328.07,-145.51 364.89,-128.47 392.17,-115.86"/>
<polygon fill="black" stroke="black" stroke-width="0.5" points="393.68,-117.09 397.49,-113.4 392.21,-113.91 393.68,-117.09"/>
</g>
<!-- ZCCurve -->
<g id="node12" class="node">
<title>ZCCurve</title>
<g id="a_node12"><a xlink:href="../Discount_curves/discount_curves.html#discount_curves.ZCCurve" xlink:title="ZCCurve" target="_top">
<ellipse fill="white" stroke="#1e90ff" cx="429.63" cy="-27" rx="34.07" ry="27"/>
<text text-anchor="middle" x="429.63" y="-22.35" font-family="Vera Sans, DejaVu Sans, Liberation Sans, Arial, Helvetica, sans" font-size="12.00">ZCCurve</text>
</a>
</g>
</g>
<!-- CubicDC&#45;&gt;ZCCurve -->
<g id="edge11" class="edge">
<title>CubicDC&#45;&gt;ZCCurve</title>
<path fill="none" stroke="black" stroke-width="0.5" d="M286.65,-145.94C300.73,-122.08 324.56,-86.44 353.05,-63 364.74,-53.38 379.43,-45.63 392.74,-39.82"/>
<polygon fill="black" stroke="black" stroke-width="0.5" points="394.04,-41.17 397.96,-37.6 392.67,-37.94 394.04,-41.17"/>
</g>
</g>
</svg>
