<?xml version="1.0" encoding="UTF-8" standalone="no"?>
<!DOCTYPE svg PUBLIC "-//W3C//DTD SVG 1.1//EN"
 "http://www.w3.org/Graphics/SVG/1.1/DTD/svg11.dtd">
<!-- Generated by graphviz version 2.50.0 (0)
 -->
<!-- Title: inheritance73154a0a36 Pages: 1 -->
<svg width="575pt" height="388pt"
 viewBox="0.00 0.00 575.14 388.00" xmlns="http://www.w3.org/2000/svg" xmlns:xlink="http://www.w3.org/1999/xlink">
<g id="graph0" class="graph" transform="scale(1 1) rotate(0) translate(4 384)">
<title>inheritance73154a0a36</title>
<!-- Basis -->
<g id="node1" class="node">
<title>Basis</title>
<g id="a_node1"><a xlink:href="../Underlyings/underlyings.html#underlyings.Basis" xlink:title="Basis" target="_top">
<ellipse fill="white" stroke="#1e90ff" cx="40.7" cy="-118" rx="27" ry="27"/>
<text text-anchor="middle" x="40.7" y="-114.9" font-family="Vera Sans, DejaVu Sans, Liberation Sans, Arial, Helvetica, sans" font-size="12.00">Basis</text>
</a>
</g>
</g>
<!-- Basket -->
<g id="node2" class="node">
<title>Basket</title>
<g id="a_node2"><a xlink:href="../Underlyings/underlyings.html#underlyings.Basket" xlink:title="Basket" target="_top">
<ellipse fill="white" stroke="#1e90ff" cx="358.56" cy="-353" rx="28.53" ry="27"/>
<text text-anchor="middle" x="358.56" y="-349.9" font-family="Vera Sans, DejaVu Sans, Liberation Sans, Arial, Helvetica, sans" font-size="12.00">Basket</text>
</a>
</g>
</g>
<!-- ExposureIndex -->
<g id="node6" class="node">
<title>ExposureIndex</title>
<g id="a_node6"><a xlink:href="../Underlyings/underlyings.html#underlyings.ExposureIndex" xlink:title="ExposureIndex" target="_top">
<ellipse fill="white" stroke="#1e90ff" cx="510.7" cy="-353" rx="52.79" ry="27"/>
<text text-anchor="middle" x="510.7" y="-349.9" font-family="Vera Sans, DejaVu Sans, Liberation Sans, Arial, Helvetica, sans" font-size="12.00">ExposureIndex</text>
</a>
</g>
</g>
<!-- Basket&#45;&gt;ExposureIndex -->
<g id="edge3" class="edge">
<title>Basket&#45;&gt;ExposureIndex</title>
<path fill="none" stroke="black" stroke-width="0.5" d="M387.45,-353C405.82,-353 430.52,-353 452.92,-353"/>
<polygon fill="black" stroke="black" stroke-width="0.5" points="452.96,-354.75 457.96,-353 452.96,-351.25 452.96,-354.75"/>
</g>
<!-- MultiAsset -->
<g id="node3" class="node">
<title>MultiAsset</title>
<g id="a_node3"><a xlink:href="../Underlyings/underlyings.html#underlyings.MultiAsset" xlink:title="MultiAsset" target="_top">
<ellipse fill="white" stroke="#1e90ff" cx="190.13" cy="-281" rx="39.15" ry="27"/>
<text text-anchor="middle" x="190.13" y="-277.9" font-family="Vera Sans, DejaVu Sans, Liberation Sans, Arial, Helvetica, sans" font-size="12.00">MultiAsset</text>
</a>
</g>
</g>
<!-- MultiAsset&#45;&gt;Basket -->
<g id="edge1" class="edge">
<title>MultiAsset&#45;&gt;Basket</title>
<path fill="none" stroke="black" stroke-width="0.5" d="M223.62,-295.05C253.66,-308.05 297.98,-327.22 327.29,-339.91"/>
<polygon fill="black" stroke="black" stroke-width="0.5" points="326.94,-341.66 332.22,-342.04 328.33,-338.45 326.94,-341.66"/>
</g>
<!-- MultiAssetHeston -->
<g id="node11" class="node">
<title>MultiAssetHeston</title>
<g id="a_node11"><a xlink:href="../Underlyings/underlyings.html#underlyings.MultiAssetHeston" xlink:title="Parsimonious Multiple assets Heston model." target="_top">
<ellipse fill="white" stroke="#1e90ff" cx="358.56" cy="-281" rx="59.9" ry="27"/>
<text text-anchor="middle" x="358.56" y="-277.9" font-family="Vera Sans, DejaVu Sans, Liberation Sans, Arial, Helvetica, sans" font-size="12.00">MultiAssetHeston</text>
</a>
</g>
</g>
<!-- MultiAsset&#45;&gt;MultiAssetHeston -->
<g id="edge8" class="edge">
<title>MultiAsset&#45;&gt;MultiAssetHeston</title>
<path fill="none" stroke="black" stroke-width="0.5" d="M229.31,-281C248.33,-281 271.83,-281 293.49,-281"/>
<polygon fill="black" stroke="black" stroke-width="0.5" points="293.67,-282.75 298.67,-281 293.67,-279.25 293.67,-282.75"/>
</g>
<!-- DeterministicVolAsset -->
<g id="node4" class="node">
<title>DeterministicVolAsset</title>
<g id="a_node4"><a xlink:href="../Underlyings/underlyings.html#underlyings.DeterministicVolAsset" xlink:title="date format: %Y%m%d" target="_top">
<ellipse fill="white" stroke="#1e90ff" cx="190.13" cy="-190" rx="72.95" ry="27"/>
<text text-anchor="middle" x="190.13" y="-186.9" font-family="Vera Sans, DejaVu Sans, Liberation Sans, Arial, Helvetica, sans" font-size="12.00">DeterministicVolAsset</text>
</a>
</g>
</g>
<!-- LognormalAsset -->
<g id="node9" class="node">
<title>LognormalAsset</title>
<g id="a_node9"><a xlink:href="../Underlyings/underlyings.html#underlyings.LognormalAsset" xlink:title="A class representing a Lognormal Asset, derived from both the NormalAsset and DeterministicVolAsset classes." target="_top">
<ellipse fill="white" stroke="#1e90ff" cx="510.7" cy="-199" rx="56.39" ry="27"/>
<text text-anchor="middle" x="510.7" y="-195.9" font-family="Vera Sans, DejaVu Sans, Liberation Sans, Arial, Helvetica, sans" font-size="12.00">LognormalAsset</text>
</a>
</g>
</g>
<!-- DeterministicVolAsset&#45;&gt;LognormalAsset -->
<g id="edge6" class="edge">
<title>DeterministicVolAsset&#45;&gt;LognormalAsset</title>
<path fill="none" stroke="black" stroke-width="0.5" d="M255.59,-201.86C269.79,-204 284.79,-205.9 298.86,-207 351.76,-211.15 365.24,-209.31 418.26,-207 428.52,-206.55 439.41,-205.82 449.96,-204.98"/>
<polygon fill="black" stroke="black" stroke-width="0.5" points="450.27,-206.71 455.11,-204.56 449.98,-203.22 450.27,-206.71"/>
</g>
<!-- NormalAsset -->
<g id="node10" class="node">
<title>NormalAsset</title>
<g id="a_node10"><a xlink:href="../Underlyings/underlyings.html#underlyings.NormalAsset" xlink:title="A class representing a Normal Asset, derived from the DeterministicVolAsset class." target="_top">
<ellipse fill="white" stroke="#1e90ff" cx="358.56" cy="-171" rx="46.85" ry="27"/>
<text text-anchor="middle" x="358.56" y="-167.9" font-family="Vera Sans, DejaVu Sans, Liberation Sans, Arial, Helvetica, sans" font-size="12.00">NormalAsset</text>
</a>
</g>
</g>
<!-- DeterministicVolAsset&#45;&gt;NormalAsset -->
<g id="edge9" class="edge">
<title>DeterministicVolAsset&#45;&gt;NormalAsset</title>
<path fill="none" stroke="black" stroke-width="0.5" d="M259.78,-182.16C275.71,-180.34 292.37,-178.44 307.34,-176.73"/>
<polygon fill="black" stroke="black" stroke-width="0.5" points="307.58,-178.47 312.34,-176.16 307.18,-174.99 307.58,-178.47"/>
</g>
<!-- Underlying -->
<g id="node5" class="node">
<title>Underlying</title>
<g id="a_node5"><a xlink:href="../Underlyings/underlyings.html#underlyings.Underlying" xlink:title="Underlying" target="_top">
<ellipse fill="white" stroke="#1e90ff" cx="40.7" cy="-190" rx="40.91" ry="27"/>
<text text-anchor="middle" x="40.7" y="-186.9" font-family="Vera Sans, DejaVu Sans, Liberation Sans, Arial, Helvetica, sans" font-size="12.00">Underlying</text>
</a>
</g>
</g>
<!-- Underlying&#45;&gt;MultiAsset -->
<g id="edge7" class="edge">
<title>Underlying&#45;&gt;MultiAsset</title>
<path fill="none" stroke="black" stroke-width="0.5" d="M71.18,-208.2C95.65,-223.3 130.43,-244.77 155.89,-260.48"/>
<polygon fill="black" stroke="black" stroke-width="0.5" points="155.03,-262.01 160.21,-263.15 156.87,-259.03 155.03,-262.01"/>
</g>
<!-- Underlying&#45;&gt;DeterministicVolAsset -->
<g id="edge2" class="edge">
<title>Underlying&#45;&gt;DeterministicVolAsset</title>
<path fill="none" stroke="black" stroke-width="0.5" d="M81.6,-190C91.13,-190 101.62,-190 112.19,-190"/>
<polygon fill="black" stroke="black" stroke-width="0.5" points="112.39,-191.75 117.39,-190 112.39,-188.25 112.39,-191.75"/>
</g>
<!-- VolModel -->
<g id="node8" class="node">
<title>VolModel</title>
<g id="a_node8"><a xlink:href="../Underlyings/underlyings.html#underlyings.VolModel" xlink:title="Notes" target="_top">
<ellipse fill="white" stroke="#1e90ff" cx="190.13" cy="-99" rx="36.23" ry="27"/>
<text text-anchor="middle" x="190.13" y="-95.9" font-family="Vera Sans, DejaVu Sans, Liberation Sans, Arial, Helvetica, sans" font-size="12.00">VolModel</text>
</a>
</g>
</g>
<!-- Underlying&#45;&gt;VolModel -->
<g id="edge11" class="edge">
<title>Underlying&#45;&gt;VolModel</title>
<path fill="none" stroke="black" stroke-width="0.5" d="M71.18,-171.8C96.13,-156.41 131.79,-134.39 157.36,-118.61"/>
<polygon fill="black" stroke="black" stroke-width="0.5" points="158.36,-120.05 161.7,-115.94 156.52,-117.07 158.36,-120.05"/>
</g>
<!-- Heston -->
<g id="node7" class="node">
<title>Heston</title>
<g id="a_node7"><a xlink:href="../Underlyings/underlyings.html#underlyings.Heston" xlink:title="A class for simulating the Heston stochastic volatility model using Andersen&#39;s Quadratic Exponential (QE) method." target="_top">
<ellipse fill="white" stroke="#1e90ff" cx="358.56" cy="-99" rx="29.7" ry="27"/>
<text text-anchor="middle" x="358.56" y="-95.9" font-family="Vera Sans, DejaVu Sans, Liberation Sans, Arial, Helvetica, sans" font-size="12.00">Heston</text>
</a>
</g>
</g>
<!-- VolModel&#45;&gt;Heston -->
<g id="edge4" class="edge">
<title>VolModel&#45;&gt;Heston</title>
<path fill="none" stroke="black" stroke-width="0.5" d="M226.83,-99C255.43,-99 295.27,-99 323.44,-99"/>
<polygon fill="black" stroke="black" stroke-width="0.5" points="323.56,-100.75 328.56,-99 323.56,-97.25 323.56,-100.75"/>
</g>
<!-- SABR -->
<g id="node12" class="node">
<title>SABR</title>
<g id="a_node12"><a xlink:href="../Underlyings/underlyings.html#underlyings.SABR" xlink:title="SABR" target="_top">
<ellipse fill="white" stroke="#1e90ff" cx="358.56" cy="-27" rx="27.27" ry="27"/>
<text text-anchor="middle" x="358.56" y="-23.9" font-family="Vera Sans, DejaVu Sans, Liberation Sans, Arial, Helvetica, sans" font-size="12.00">SABR</text>
</a>
</g>
</g>
<!-- VolModel&#45;&gt;SABR -->
<g id="edge10" class="edge">
<title>VolModel&#45;&gt;SABR</title>
<path fill="none" stroke="black" stroke-width="0.5" d="M222.05,-85.63C252.56,-72.42 298.86,-52.39 328.66,-39.5"/>
<polygon fill="black" stroke="black" stroke-width="0.5" points="329.4,-41.09 333.29,-37.5 328.01,-37.88 329.4,-41.09"/>
</g>
<!-- NormalAsset&#45;&gt;LognormalAsset -->
<g id="edge5" class="edge">
<title>NormalAsset&#45;&gt;LognormalAsset</title>
<path fill="none" stroke="black" stroke-width="0.5" d="M403.39,-179.17C418.84,-182.06 436.44,-185.34 452.82,-188.39"/>
<polygon fill="black" stroke="black" stroke-width="0.5" points="452.62,-190.14 457.85,-189.33 453.26,-186.69 452.62,-190.14"/>
</g>
</g>
</svg>
