<?xml version="1.0" encoding="UTF-8" standalone="no"?>
<!DOCTYPE svg PUBLIC "-//W3C//DTD SVG 1.1//EN"
 "http://www.w3.org/Graphics/SVG/1.1/DTD/svg11.dtd">
<!-- Generated by graphviz version 2.50.0 (0)
 -->
<!-- Title: inheritance19ee2b9e36 Pages: 1 -->
<svg width="952pt" height="964pt"
 viewBox="0.00 0.00 952.15 964.00" xmlns="http://www.w3.org/2000/svg" xmlns:xlink="http://www.w3.org/1999/xlink">
<g id="graph0" class="graph" transform="scale(1 1) rotate(0) translate(4 960)">
<title>inheritance19ee2b9e36</title>
<!-- Airbag -->
<g id="node1" class="node">
<title>Airbag</title>
<g id="a_node1"><a xlink:href="../Structured/structured.html#structured.Airbag" xlink:title="The airbag is constructed by taking the zero&#45;coupon bond, adding the call option, and subtracting the put option." target="_top">
<ellipse fill="white" stroke="#1e90ff" cx="883.91" cy="-929" rx="28.44" ry="27"/>
<text text-anchor="middle" x="883.91" y="-925.9" font-family="Vera Sans, DejaVu Sans, Liberation Sans, Arial, Helvetica, sans" font-size="12.00">Airbag</text>
</a>
</g>
</g>
<!-- Call -->
<g id="node2" class="node">
<title>Call</title>
<g id="a_node2"><a xlink:href="../Structured/structured.html#structured.Call" xlink:title="Class for instantiating a Call Option." target="_top">
<ellipse fill="white" stroke="#1e90ff" cx="713.31" cy="-713" rx="27" ry="27"/>
<text text-anchor="middle" x="713.31" y="-709.9" font-family="Vera Sans, DejaVu Sans, Liberation Sans, Arial, Helvetica, sans" font-size="12.00">Call</text>
</a>
</g>
</g>
<!-- Call&#45;&gt;Airbag -->
<g id="edge1" class="edge">
<title>Call&#45;&gt;Airbag</title>
<path fill="none" stroke="black" stroke-width="0.5" d="M739.56,-719.42C755.59,-724.77 775.54,-734 787.67,-749 829.14,-800.31 784.54,-839.88 823.67,-893 831.1,-903.09 842.29,-910.93 852.94,-916.68"/>
<polygon fill="black" stroke="black" stroke-width="0.5" points="852.22,-918.27 857.47,-919.01 853.83,-915.16 852.22,-918.27"/>
</g>
<!-- Butterfly -->
<g id="node14" class="node">
<title>Butterfly</title>
<g id="a_node14"><a xlink:href="../Structured/structured.html#structured.Butterfly" xlink:title="A financial derivative representing a butterfly option strategy, which involves selling two options at a middle" target="_top">
<ellipse fill="white" stroke="#1e90ff" cx="883.91" cy="-713" rx="32.63" ry="27"/>
<text text-anchor="middle" x="883.91" y="-709.9" font-family="Vera Sans, DejaVu Sans, Liberation Sans, Arial, Helvetica, sans" font-size="12.00">Butterfly</text>
</a>
</g>
</g>
<!-- Call&#45;&gt;Butterfly -->
<g id="edge15" class="edge">
<title>Call&#45;&gt;Butterfly</title>
<path fill="none" stroke="black" stroke-width="0.5" d="M740.66,-713C768.93,-713 814.08,-713 845.91,-713"/>
<polygon fill="black" stroke="black" stroke-width="0.5" points="846.3,-714.75 851.3,-713 846.3,-711.25 846.3,-714.75"/>
</g>
<!-- Condor -->
<g id="node17" class="node">
<title>Condor</title>
<g id="a_node17"><a xlink:href="../Structured/structured.html#structured.Condor" xlink:title="A financial derivative representing a condor option strategy, which involves selling two options at a middle different" target="_top">
<ellipse fill="white" stroke="#1e90ff" cx="883.91" cy="-641" rx="30.29" ry="27"/>
<text text-anchor="middle" x="883.91" y="-637.9" font-family="Vera Sans, DejaVu Sans, Liberation Sans, Arial, Helvetica, sans" font-size="12.00">Condor</text>
</a>
</g>
</g>
<!-- Call&#45;&gt;Condor -->
<g id="edge19" class="edge">
<title>Call&#45;&gt;Condor</title>
<path fill="none" stroke="black" stroke-width="0.5" d="M738.47,-702.68C768.24,-689.97 818.88,-668.34 851.6,-654.37"/>
<polygon fill="black" stroke="black" stroke-width="0.5" points="852.38,-655.94 856.29,-652.37 851.01,-652.72 852.38,-655.94"/>
</g>
<!-- QuantoCall -->
<g id="node25" class="node">
<title>QuantoCall</title>
<g id="a_node25"><a xlink:href="../Structured/structured.html#structured.QuantoCall" xlink:title="QuantoCall" target="_top">
<ellipse fill="white" stroke="#1e90ff" cx="883.91" cy="-497" rx="41.58" ry="27"/>
<text text-anchor="middle" x="883.91" y="-493.9" font-family="Vera Sans, DejaVu Sans, Liberation Sans, Arial, Helvetica, sans" font-size="12.00">QuantoCall</text>
</a>
</g>
</g>
<!-- Call&#45;&gt;QuantoCall -->
<g id="edge36" class="edge">
<title>Call&#45;&gt;QuantoCall</title>
<path fill="none" stroke="black" stroke-width="0.5" d="M724.65,-688.37C741.19,-651.18 776.61,-580.06 823.67,-533 830.13,-526.54 837.97,-520.74 845.8,-515.78"/>
<polygon fill="black" stroke="black" stroke-width="0.5" points="846.8,-517.23 850.15,-513.12 844.97,-514.24 846.8,-517.23"/>
</g>
<!-- Straddle -->
<g id="node29" class="node">
<title>Straddle</title>
<g id="a_node29"><a xlink:href="../Structured/structured.html#structured.Straddle" xlink:title="It is an options trading strategy that involves buying both a call option and a put option with same" target="_top">
<ellipse fill="white" stroke="#1e90ff" cx="883.91" cy="-857" rx="33.8" ry="27"/>
<text text-anchor="middle" x="883.91" y="-853.9" font-family="Vera Sans, DejaVu Sans, Liberation Sans, Arial, Helvetica, sans" font-size="12.00">Straddle</text>
</a>
</g>
</g>
<!-- Call&#45;&gt;Straddle -->
<g id="edge42" class="edge">
<title>Call&#45;&gt;Straddle</title>
<path fill="none" stroke="black" stroke-width="0.5" d="M739.22,-720.61C754.71,-726.37 774.18,-735.61 787.67,-749 813.06,-774.2 799.43,-794.68 823.67,-821 831.02,-828.99 840.55,-835.82 849.81,-841.31"/>
<polygon fill="black" stroke="black" stroke-width="0.5" points="849.12,-842.93 854.32,-843.9 850.86,-839.9 849.12,-842.93"/>
</g>
<!-- Strangle -->
<g id="node30" class="node">
<title>Strangle</title>
<g id="a_node30"><a xlink:href="../Structured/structured.html#structured.Strangle" xlink:title="It is an options trading strategy that involves buying both a call option and a put option with different" target="_top">
<ellipse fill="white" stroke="#1e90ff" cx="883.91" cy="-785" rx="33.8" ry="27"/>
<text text-anchor="middle" x="883.91" y="-781.9" font-family="Vera Sans, DejaVu Sans, Liberation Sans, Arial, Helvetica, sans" font-size="12.00">Strangle</text>
</a>
</g>
</g>
<!-- Call&#45;&gt;Strangle -->
<g id="edge44" class="edge">
<title>Call&#45;&gt;Strangle</title>
<path fill="none" stroke="black" stroke-width="0.5" d="M738.47,-723.32C767.45,-735.69 816.23,-756.53 848.99,-770.51"/>
<polygon fill="black" stroke="black" stroke-width="0.5" points="848.42,-772.17 853.7,-772.53 849.79,-768.95 848.42,-772.17"/>
</g>
<!-- Put -->
<g id="node3" class="node">
<title>Put</title>
<g id="a_node3"><a xlink:href="../Structured/structured.html#structured.Put" xlink:title="Class for instantiating a Put Option." target="_top">
<ellipse fill="white" stroke="#1e90ff" cx="713.31" cy="-785" rx="27" ry="27"/>
<text text-anchor="middle" x="713.31" y="-781.9" font-family="Vera Sans, DejaVu Sans, Liberation Sans, Arial, Helvetica, sans" font-size="12.00">Put</text>
</a>
</g>
</g>
<!-- Put&#45;&gt;Airbag -->
<g id="edge2" class="edge">
<title>Put&#45;&gt;Airbag</title>
<path fill="none" stroke="black" stroke-width="0.5" d="M732.04,-805.14C752.7,-827.98 788.54,-865.59 823.67,-893 833.21,-900.45 844.4,-907.6 854.47,-913.54"/>
<polygon fill="black" stroke="black" stroke-width="0.5" points="853.81,-915.18 859.01,-916.18 855.57,-912.15 853.81,-915.18"/>
</g>
<!-- Put&#45;&gt;Butterfly -->
<g id="edge16" class="edge">
<title>Put&#45;&gt;Butterfly</title>
<path fill="none" stroke="black" stroke-width="0.5" d="M738.47,-774.68C767.71,-762.19 817.11,-741.1 849.87,-727.11"/>
<polygon fill="black" stroke="black" stroke-width="0.5" points="850.66,-728.67 854.58,-725.1 849.29,-725.45 850.66,-728.67"/>
</g>
<!-- Put&#45;&gt;Condor -->
<g id="edge20" class="edge">
<title>Put&#45;&gt;Condor</title>
<path fill="none" stroke="black" stroke-width="0.5" d="M739.22,-777.39C754.71,-771.63 774.18,-762.39 787.67,-749 813.06,-723.8 799.43,-703.32 823.67,-677 831.58,-668.4 842.02,-661.15 851.93,-655.45"/>
<polygon fill="black" stroke="black" stroke-width="0.5" points="852.91,-656.91 856.43,-652.95 851.21,-653.85 852.91,-656.91"/>
</g>
<!-- QuantoPut -->
<g id="node28" class="node">
<title>QuantoPut</title>
<g id="a_node28"><a xlink:href="../Structured/structured.html#structured.QuantoPut" xlink:title="QuantoPut" target="_top">
<ellipse fill="white" stroke="#1e90ff" cx="883.91" cy="-569" rx="40.32" ry="27"/>
<text text-anchor="middle" x="883.91" y="-565.9" font-family="Vera Sans, DejaVu Sans, Liberation Sans, Arial, Helvetica, sans" font-size="12.00">QuantoPut</text>
</a>
</g>
</g>
<!-- Put&#45;&gt;QuantoPut -->
<g id="edge41" class="edge">
<title>Put&#45;&gt;QuantoPut</title>
<path fill="none" stroke="black" stroke-width="0.5" d="M739.56,-778.58C755.59,-773.23 775.54,-764 787.67,-749 829.14,-697.69 784.54,-658.12 823.67,-605 829.27,-597.4 837,-591.07 845.03,-585.96"/>
<polygon fill="black" stroke="black" stroke-width="0.5" points="846.15,-587.33 849.51,-583.24 844.33,-584.33 846.15,-587.33"/>
</g>
<!-- Put&#45;&gt;Straddle -->
<g id="edge43" class="edge">
<title>Put&#45;&gt;Straddle</title>
<path fill="none" stroke="black" stroke-width="0.5" d="M738.47,-795.32C767.45,-807.69 816.23,-828.53 848.99,-842.51"/>
<polygon fill="black" stroke="black" stroke-width="0.5" points="848.42,-844.17 853.7,-844.53 849.79,-840.95 848.42,-844.17"/>
</g>
<!-- Put&#45;&gt;Strangle -->
<g id="edge45" class="edge">
<title>Put&#45;&gt;Strangle</title>
<path fill="none" stroke="black" stroke-width="0.5" d="M740.66,-785C768.58,-785 812.96,-785 844.72,-785"/>
<polygon fill="black" stroke="black" stroke-width="0.5" points="845.1,-786.75 850.1,-785 845.1,-783.25 845.1,-786.75"/>
</g>
<!-- ZCBond -->
<g id="node4" class="node">
<title>ZCBond</title>
<g id="a_node4"><a xlink:href="../Structured/structured.html#structured.ZCBond" xlink:title="ZCBond" target="_top">
<ellipse fill="white" stroke="#1e90ff" cx="335.22" cy="-689" rx="33.8" ry="27"/>
<text text-anchor="middle" x="335.22" y="-685.9" font-family="Vera Sans, DejaVu Sans, Liberation Sans, Arial, Helvetica, sans" font-size="12.00">ZCBond</text>
</a>
</g>
</g>
<!-- ZCBond&#45;&gt;Airbag -->
<g id="edge3" class="edge">
<title>ZCBond&#45;&gt;Airbag</title>
<path fill="none" stroke="black" stroke-width="0.5" d="M344.3,-715.17C355.02,-745.41 376.93,-794.43 413.01,-821 550.84,-922.53 768.34,-930.77 850.25,-929.97"/>
<polygon fill="black" stroke="black" stroke-width="0.5" points="850.47,-931.72 855.45,-929.91 850.43,-928.22 850.47,-931.72"/>
</g>
<!-- ArAsian -->
<g id="node5" class="node">
<title>ArAsian</title>
<g id="a_node5"><a xlink:href="../Structured/structured.html#structured.ArAsian" xlink:title="ArAsian" target="_top">
<ellipse fill="white" stroke="#1e90ff" cx="507.98" cy="-243" rx="32.04" ry="27"/>
<text text-anchor="middle" x="507.98" y="-239.9" font-family="Vera Sans, DejaVu Sans, Liberation Sans, Arial, Helvetica, sans" font-size="12.00">ArAsian</text>
</a>
</g>
</g>
<!-- MCProduct -->
<g id="node6" class="node">
<title>MCProduct</title>
<g id="a_node6"><a xlink:href="../Structured/structured.html#structured.MCProduct" xlink:title="MCProduct" target="_top">
<ellipse fill="white" stroke="#1e90ff" cx="335.22" cy="-315" rx="41.58" ry="27"/>
<text text-anchor="middle" x="335.22" y="-311.9" font-family="Vera Sans, DejaVu Sans, Liberation Sans, Arial, Helvetica, sans" font-size="12.00">MCProduct</text>
</a>
</g>
</g>
<!-- MCProduct&#45;&gt;ArAsian -->
<g id="edge4" class="edge">
<title>MCProduct&#45;&gt;ArAsian</title>
<path fill="none" stroke="black" stroke-width="0.5" d="M369.24,-298.88C382.72,-292.47 398.51,-285.17 413.01,-279 432.85,-270.56 455.4,-261.89 473.43,-255.18"/>
<polygon fill="black" stroke="black" stroke-width="0.5" points="474.32,-256.72 478.39,-253.34 473.1,-253.44 474.32,-256.72"/>
</g>
<!-- Autocallable -->
<g id="node8" class="node">
<title>Autocallable</title>
<g id="a_node8"><a xlink:href="../Structured/structured.html#structured.Autocallable" xlink:title="Autocallable" target="_top">
<ellipse fill="white" stroke="#1e90ff" cx="507.98" cy="-171" rx="45.09" ry="27"/>
<text text-anchor="middle" x="507.98" y="-167.9" font-family="Vera Sans, DejaVu Sans, Liberation Sans, Arial, Helvetica, sans" font-size="12.00">Autocallable</text>
</a>
</g>
</g>
<!-- MCProduct&#45;&gt;Autocallable -->
<g id="edge6" class="edge">
<title>MCProduct&#45;&gt;Autocallable</title>
<path fill="none" stroke="black" stroke-width="0.5" d="M348.73,-289.43C361.76,-265.19 384.28,-229.27 413.01,-207 427.03,-196.14 444.7,-188.23 460.93,-182.64"/>
<polygon fill="black" stroke="black" stroke-width="0.5" points="461.72,-184.22 465.91,-180.98 460.62,-180.9 461.72,-184.22"/>
</g>
<!-- KnockOutContingentPayment -->
<g id="node10" class="node">
<title>KnockOutContingentPayment</title>
<g id="a_node10"><a xlink:href="../Structured/structured.html#structured.KnockOutContingentPayment" xlink:title="KnockOutContingentPayment" target="_top">
<ellipse fill="white" stroke="#1e90ff" cx="507.98" cy="-603" rx="94.95" ry="27"/>
<text text-anchor="middle" x="507.98" y="-599.9" font-family="Vera Sans, DejaVu Sans, Liberation Sans, Arial, Helvetica, sans" font-size="12.00">KnockOutContingentPayment</text>
</a>
</g>
</g>
<!-- MCProduct&#45;&gt;KnockOutContingentPayment -->
<g id="edge27" class="edge">
<title>MCProduct&#45;&gt;KnockOutContingentPayment</title>
<path fill="none" stroke="black" stroke-width="0.5" d="M352.82,-339.7C361.19,-353.17 370.84,-370.44 377.01,-387 405.48,-463.46 360.38,-504.66 413.01,-567 418.24,-573.19 424.65,-578.32 431.66,-582.57"/>
<polygon fill="black" stroke="black" stroke-width="0.5" points="430.88,-584.14 436.09,-585.1 432.62,-581.1 430.88,-584.14"/>
</g>
<!-- BarrierOption -->
<g id="node11" class="node">
<title>BarrierOption</title>
<g id="a_node11"><a xlink:href="../Structured/structured.html#structured.BarrierOption" xlink:title="BarrierOption" target="_top">
<ellipse fill="white" stroke="#1e90ff" cx="507.98" cy="-99" rx="47.52" ry="27"/>
<text text-anchor="middle" x="507.98" y="-95.9" font-family="Vera Sans, DejaVu Sans, Liberation Sans, Arial, Helvetica, sans" font-size="12.00">BarrierOption</text>
</a>
</g>
</g>
<!-- MCProduct&#45;&gt;BarrierOption -->
<g id="edge13" class="edge">
<title>MCProduct&#45;&gt;BarrierOption</title>
<path fill="none" stroke="black" stroke-width="0.5" d="M340.86,-288.04C348.89,-249.18 368.96,-177.43 413.01,-135 425.32,-123.14 441.96,-115.08 457.81,-109.66"/>
<polygon fill="black" stroke="black" stroke-width="0.5" points="458.49,-111.28 462.7,-108.06 457.4,-107.95 458.49,-111.28"/>
</g>
<!-- AutocallableSingleAsset -->
<g id="node12" class="node">
<title>AutocallableSingleAsset</title>
<g id="a_node12"><a xlink:href="../Structured/structured.html#structured.AutocallableSingleAsset" xlink:title="AutocallableSingleAsset" target="_top">
<ellipse fill="white" stroke="#1e90ff" cx="507.98" cy="-27" rx="80.15" ry="27"/>
<text text-anchor="middle" x="507.98" y="-23.9" font-family="Vera Sans, DejaVu Sans, Liberation Sans, Arial, Helvetica, sans" font-size="12.00">AutocallableSingleAsset</text>
</a>
</g>
</g>
<!-- MCProduct&#45;&gt;AutocallableSingleAsset -->
<g id="edge10" class="edge">
<title>MCProduct&#45;&gt;AutocallableSingleAsset</title>
<path fill="none" stroke="black" stroke-width="0.5" d="M336.99,-287.67C339.87,-236.86 353.13,-127.23 413.01,-63 419.97,-55.53 428.65,-49.6 437.9,-44.89"/>
<polygon fill="black" stroke="black" stroke-width="0.5" points="438.75,-46.42 442.49,-42.67 437.22,-43.27 438.75,-46.42"/>
</g>
<!-- Digital -->
<g id="node19" class="node">
<title>Digital</title>
<g id="a_node19"><a xlink:href="../Structured/structured.html#structured.Digital" xlink:title="Digital" target="_top">
<ellipse fill="white" stroke="#1e90ff" cx="507.98" cy="-531" rx="27.86" ry="27"/>
<text text-anchor="middle" x="507.98" y="-527.9" font-family="Vera Sans, DejaVu Sans, Liberation Sans, Arial, Helvetica, sans" font-size="12.00">Digital</text>
</a>
</g>
</g>
<!-- MCProduct&#45;&gt;Digital -->
<g id="edge22" class="edge">
<title>MCProduct&#45;&gt;Digital</title>
<path fill="none" stroke="black" stroke-width="0.5" d="M351.99,-340.03C360.13,-353.6 369.83,-370.85 377.01,-387 397.58,-433.23 378.03,-458.44 413.01,-495 429.49,-512.22 455.1,-521.31 475.42,-526.05"/>
<polygon fill="black" stroke="black" stroke-width="0.5" points="475.21,-527.79 480.47,-527.16 475.96,-524.37 475.21,-527.79"/>
</g>
<!-- GAsian -->
<g id="node21" class="node">
<title>GAsian</title>
<g id="a_node21"><a xlink:href="../Structured/structured.html#structured.GAsian" xlink:title="GAsian" target="_top">
<ellipse fill="white" stroke="#1e90ff" cx="507.98" cy="-459" rx="30.29" ry="27"/>
<text text-anchor="middle" x="507.98" y="-455.9" font-family="Vera Sans, DejaVu Sans, Liberation Sans, Arial, Helvetica, sans" font-size="12.00">GAsian</text>
</a>
</g>
</g>
<!-- MCProduct&#45;&gt;GAsian -->
<g id="edge25" class="edge">
<title>MCProduct&#45;&gt;GAsian</title>
<path fill="none" stroke="black" stroke-width="0.5" d="M348.73,-340.57C361.76,-364.81 384.28,-400.73 413.01,-423 430.56,-436.6 453.83,-445.57 472.83,-451.15"/>
<polygon fill="black" stroke="black" stroke-width="0.5" points="472.78,-452.95 478.07,-452.64 473.74,-449.59 472.78,-452.95"/>
</g>
<!-- Lookback -->
<g id="node22" class="node">
<title>Lookback</title>
<g id="a_node22"><a xlink:href="../Structured/structured.html#structured.Lookback" xlink:title="Class for instantiating an object which represents a financial product known as a Lookback Option." target="_top">
<ellipse fill="white" stroke="#1e90ff" cx="507.98" cy="-387" rx="36.81" ry="27"/>
<text text-anchor="middle" x="507.98" y="-383.9" font-family="Vera Sans, DejaVu Sans, Liberation Sans, Arial, Helvetica, sans" font-size="12.00">Lookback</text>
</a>
</g>
</g>
<!-- MCProduct&#45;&gt;Lookback -->
<g id="edge29" class="edge">
<title>MCProduct&#45;&gt;Lookback</title>
<path fill="none" stroke="black" stroke-width="0.5" d="M369.24,-331.12C382.72,-337.53 398.51,-344.83 413.01,-351 431.53,-358.88 452.4,-366.95 469.77,-373.45"/>
<polygon fill="black" stroke="black" stroke-width="0.5" points="469.27,-375.14 474.57,-375.24 470.49,-371.86 469.27,-375.14"/>
</g>
<!-- ProductFromFunction -->
<g id="node23" class="node">
<title>ProductFromFunction</title>
<g id="a_node23"><a xlink:href="../Structured/structured.html#structured.ProductFromFunction" xlink:title="Class for instantiating an object from its payoff at maturity. The product can be path&#45;dependent (exotic) but it" target="_top">
<ellipse fill="white" stroke="#1e90ff" cx="507.98" cy="-315" rx="71.78" ry="27"/>
<text text-anchor="middle" x="507.98" y="-311.9" font-family="Vera Sans, DejaVu Sans, Liberation Sans, Arial, Helvetica, sans" font-size="12.00">ProductFromFunction</text>
</a>
</g>
</g>
<!-- MCProduct&#45;&gt;ProductFromFunction -->
<g id="edge32" class="edge">
<title>MCProduct&#45;&gt;ProductFromFunction</title>
<path fill="none" stroke="black" stroke-width="0.5" d="M377.12,-315C393.27,-315 412.35,-315 430.86,-315"/>
<polygon fill="black" stroke="black" stroke-width="0.5" points="431.06,-316.75 436.06,-315 431.06,-313.25 431.06,-316.75"/>
</g>
<!-- Derivative -->
<g id="node7" class="node">
<title>Derivative</title>
<g id="a_node7"><a xlink:href="../Structured/structured.html#structured.Derivative" xlink:title="date format: %Y%m%d" target="_top">
<ellipse fill="white" stroke="#1e90ff" cx="335.22" cy="-423" rx="38.57" ry="27"/>
<text text-anchor="middle" x="335.22" y="-419.9" font-family="Vera Sans, DejaVu Sans, Liberation Sans, Arial, Helvetica, sans" font-size="12.00">Derivative</text>
</a>
</g>
</g>
<!-- Derivative&#45;&gt;ArAsian -->
<g id="edge5" class="edge">
<title>Derivative&#45;&gt;ArAsian</title>
<path fill="none" stroke="black" stroke-width="0.5" d="M350.7,-398.19C358.64,-384.39 368.56,-366.85 377.01,-351 393.83,-319.43 386.5,-303.03 413.01,-279 429.22,-264.3 452.06,-255.37 471.16,-250.08"/>
<polygon fill="black" stroke="black" stroke-width="0.5" points="472.05,-251.65 476.44,-248.68 471.16,-248.27 472.05,-251.65"/>
</g>
<!-- Derivative&#45;&gt;Autocallable -->
<g id="edge7" class="edge">
<title>Derivative&#45;&gt;Autocallable</title>
<path fill="none" stroke="black" stroke-width="0.5" d="M352.3,-398.51C360.62,-384.95 370.4,-367.54 377.01,-351 401.49,-289.74 369.26,-256.38 413.01,-207 424.98,-193.49 442.59,-185.02 459.35,-179.72"/>
<polygon fill="black" stroke="black" stroke-width="0.5" points="460.22,-181.29 464.51,-178.18 459.22,-177.94 460.22,-181.29"/>
</g>
<!-- Derivative&#45;&gt;KnockOutContingentPayment -->
<g id="edge28" class="edge">
<title>Derivative&#45;&gt;KnockOutContingentPayment</title>
<path fill="none" stroke="black" stroke-width="0.5" d="M343.98,-449.48C354.63,-481.45 376.69,-534.93 413.01,-567 419.41,-572.65 426.79,-577.46 434.54,-581.53"/>
<polygon fill="black" stroke="black" stroke-width="0.5" points="434.16,-583.3 439.41,-583.98 435.73,-580.17 434.16,-583.3"/>
</g>
<!-- Derivative&#45;&gt;BarrierOption -->
<g id="edge14" class="edge">
<title>Derivative&#45;&gt;BarrierOption</title>
<path fill="none" stroke="black" stroke-width="0.5" d="M352.83,-398.71C361.31,-385.21 371.06,-367.79 377.01,-351 409.49,-259.26 351.43,-210.37 413.01,-135 423.93,-121.64 440.41,-113.22 456.54,-107.93"/>
<polygon fill="black" stroke="black" stroke-width="0.5" points="457.27,-109.54 461.53,-106.39 456.24,-106.2 457.27,-109.54"/>
</g>
<!-- Derivative&#45;&gt;AutocallableSingleAsset -->
<g id="edge11" class="edge">
<title>Derivative&#45;&gt;AutocallableSingleAsset</title>
<path fill="none" stroke="black" stroke-width="0.5" d="M353.1,-398.8C361.66,-385.33 371.41,-367.91 377.01,-351 417.57,-228.55 333.45,-164.54 413.01,-63 419.1,-55.23 427.08,-49.13 435.83,-44.35"/>
<polygon fill="black" stroke="black" stroke-width="0.5" points="437.1,-45.66 440.76,-41.83 435.51,-42.55 437.1,-45.66"/>
</g>
<!-- Vanilla -->
<g id="node15" class="node">
<title>Vanilla</title>
<g id="a_node15"><a xlink:href="../Structured/structured.html#structured.Vanilla" xlink:title="This class precomputes everything that is common for puts and calls. EXCEPT FOR IMPVOL which uses .set_, which" target="_top">
<ellipse fill="white" stroke="#1e90ff" cx="507.98" cy="-713" rx="28.53" ry="27"/>
<text text-anchor="middle" x="507.98" y="-709.9" font-family="Vera Sans, DejaVu Sans, Liberation Sans, Arial, Helvetica, sans" font-size="12.00">Vanilla</text>
</a>
</g>
</g>
<!-- Derivative&#45;&gt;Vanilla -->
<g id="edge47" class="edge">
<title>Derivative&#45;&gt;Vanilla</title>
<path fill="none" stroke="black" stroke-width="0.5" d="M337.39,-450.15C340.95,-500.12 355.28,-607.4 413.01,-672 428.97,-689.86 454.13,-700.28 474.4,-706.14"/>
<polygon fill="black" stroke="black" stroke-width="0.5" points="474.15,-707.88 479.43,-707.53 475.08,-704.51 474.15,-707.88"/>
</g>
<!-- Derivative&#45;&gt;Digital -->
<g id="edge23" class="edge">
<title>Derivative&#45;&gt;Digital</title>
<path fill="none" stroke="black" stroke-width="0.5" d="M356.19,-445.92C370.69,-461.45 391.48,-481.52 413.01,-495 432.5,-507.21 456.79,-516.38 475.79,-522.41"/>
<polygon fill="black" stroke="black" stroke-width="0.5" points="475.71,-524.21 481,-524.03 476.75,-520.87 475.71,-524.21"/>
</g>
<!-- Forward -->
<g id="node20" class="node">
<title>Forward</title>
<g id="a_node20"><a xlink:href="../Structured/structured.html#structured.Forward" xlink:title="date format: %Y%m%d" target="_top">
<ellipse fill="white" stroke="#1e90ff" cx="713.31" cy="-389" rx="33.21" ry="27"/>
<text text-anchor="middle" x="713.31" y="-385.9" font-family="Vera Sans, DejaVu Sans, Liberation Sans, Arial, Helvetica, sans" font-size="12.00">Forward</text>
</a>
</g>
</g>
<!-- Derivative&#45;&gt;Forward -->
<g id="edge24" class="edge">
<title>Derivative&#45;&gt;Forward</title>
<path fill="none" stroke="black" stroke-width="0.5" d="M336.6,-450.35C338.92,-498.05 351.39,-595.51 413.01,-639 447.5,-663.34 570.53,-666.02 602.96,-639 671.01,-582.31 592,-518.09 638.96,-443 648.84,-427.2 665.16,-414.51 679.9,-405.41"/>
<polygon fill="black" stroke="black" stroke-width="0.5" points="681.03,-406.77 684.42,-402.7 679.23,-403.77 681.03,-406.77"/>
</g>
<!-- Derivative&#45;&gt;GAsian -->
<g id="edge26" class="edge">
<title>Derivative&#45;&gt;GAsian</title>
<path fill="none" stroke="black" stroke-width="0.5" d="M372.43,-430.63C402.24,-436.92 444.16,-445.76 473.26,-451.89"/>
<polygon fill="black" stroke="black" stroke-width="0.5" points="472.92,-453.61 478.17,-452.93 473.64,-450.18 472.92,-453.61"/>
</g>
<!-- Derivative&#45;&gt;Lookback -->
<g id="edge30" class="edge">
<title>Derivative&#45;&gt;Lookback</title>
<path fill="none" stroke="black" stroke-width="0.5" d="M372.43,-415.37C400.18,-409.52 438.42,-401.45 467.05,-395.42"/>
<polygon fill="black" stroke="black" stroke-width="0.5" points="467.75,-397.06 472.28,-394.32 467.03,-393.64 467.75,-397.06"/>
</g>
<!-- Derivative&#45;&gt;ProductFromFunction -->
<g id="edge31" class="edge">
<title>Derivative&#45;&gt;ProductFromFunction</title>
<path fill="none" stroke="black" stroke-width="0.5" d="M356.19,-400.08C370.69,-384.55 391.48,-364.48 413.01,-351 423.6,-344.37 435.6,-338.63 447.41,-333.81"/>
<polygon fill="black" stroke="black" stroke-width="0.5" points="448.1,-335.42 452.09,-331.94 446.8,-332.17 448.1,-335.42"/>
</g>
<!-- AutocallableComp -->
<g id="node9" class="node">
<title>AutocallableComp</title>
<g id="a_node9"><a xlink:href="../Structured/structured.html#structured.AutocallableComp" xlink:title="AutocallableComp" target="_top">
<ellipse fill="white" stroke="#1e90ff" cx="713.31" cy="-208" rx="62.91" ry="27"/>
<text text-anchor="middle" x="713.31" y="-204.9" font-family="Vera Sans, DejaVu Sans, Liberation Sans, Arial, Helvetica, sans" font-size="12.00">AutocallableComp</text>
</a>
</g>
</g>
<!-- KnockOutContingentPayment&#45;&gt;AutocallableComp -->
<g id="edge8" class="edge">
<title>KnockOutContingentPayment&#45;&gt;AutocallableComp</title>
<path fill="none" stroke="black" stroke-width="0.5" d="M580.09,-585.28C588.78,-580.55 596.76,-574.57 602.96,-567 664.04,-492.36 608.85,-444.63 638.96,-353 652.59,-311.53 676.54,-267.22 693.35,-238.66"/>
<polygon fill="black" stroke="black" stroke-width="0.5" points="694.95,-239.4 695.99,-234.21 691.93,-237.62 694.95,-239.4"/>
</g>
<!-- BarrierOption&#45;&gt;AutocallableComp -->
<g id="edge9" class="edge">
<title>BarrierOption&#45;&gt;AutocallableComp</title>
<path fill="none" stroke="black" stroke-width="0.5" d="M549.63,-112.33C566.5,-118.43 586.04,-126.25 602.96,-135 629,-148.47 656.44,-166.8 677.32,-181.72"/>
<polygon fill="black" stroke="black" stroke-width="0.5" points="676.32,-183.16 681.4,-184.65 678.36,-180.32 676.32,-183.16"/>
</g>
<!-- AveragingAutocallable -->
<g id="node13" class="node">
<title>AveragingAutocallable</title>
<g id="a_node13"><a xlink:href="../Structured/structured.html#structured.AveragingAutocallable" xlink:title="AveragingAutocallable" target="_top">
<ellipse fill="white" stroke="#1e90ff" cx="713.31" cy="-27" rx="74.21" ry="27"/>
<text text-anchor="middle" x="713.31" y="-23.9" font-family="Vera Sans, DejaVu Sans, Liberation Sans, Arial, Helvetica, sans" font-size="12.00">AveragingAutocallable</text>
</a>
</g>
</g>
<!-- AutocallableSingleAsset&#45;&gt;AveragingAutocallable -->
<g id="edge12" class="edge">
<title>AutocallableSingleAsset&#45;&gt;AveragingAutocallable</title>
<path fill="none" stroke="black" stroke-width="0.5" d="M588.47,-27C603.38,-27 618.96,-27 633.84,-27"/>
<polygon fill="black" stroke="black" stroke-width="0.5" points="633.86,-28.75 638.86,-27 633.86,-25.25 633.86,-28.75"/>
</g>
<!-- Vanilla&#45;&gt;Call -->
<g id="edge17" class="edge">
<title>Vanilla&#45;&gt;Call</title>
<path fill="none" stroke="black" stroke-width="0.5" d="M536.83,-713C574.51,-713 641.54,-713 680.96,-713"/>
<polygon fill="black" stroke="black" stroke-width="0.5" points="681.09,-714.75 686.09,-713 681.09,-711.25 681.09,-714.75"/>
</g>
<!-- Vanilla&#45;&gt;Put -->
<g id="edge33" class="edge">
<title>Vanilla&#45;&gt;Put</title>
<path fill="none" stroke="black" stroke-width="0.5" d="M535.15,-722.27C572.93,-735.64 642.56,-760.3 682.35,-774.39"/>
<polygon fill="black" stroke="black" stroke-width="0.5" points="682.22,-776.2 687.52,-776.22 683.39,-772.9 682.22,-776.2"/>
</g>
<!-- ImpVolObject -->
<g id="node16" class="node">
<title>ImpVolObject</title>
<g id="a_node16"><a xlink:href="../Structured/structured.html#structured.ImpVolObject" xlink:title="ImpVolObject" target="_top">
<ellipse fill="white" stroke="#1e90ff" cx="507.98" cy="-785" rx="47.52" ry="27"/>
<text text-anchor="middle" x="507.98" y="-781.9" font-family="Vera Sans, DejaVu Sans, Liberation Sans, Arial, Helvetica, sans" font-size="12.00">ImpVolObject</text>
</a>
</g>
</g>
<!-- ImpVolObject&#45;&gt;Call -->
<g id="edge18" class="edge">
<title>ImpVolObject&#45;&gt;Call</title>
<path fill="none" stroke="black" stroke-width="0.5" d="M549.16,-770.78C588.43,-756.87 647.3,-736.02 682.55,-723.54"/>
<polygon fill="black" stroke="black" stroke-width="0.5" points="683.45,-725.08 687.58,-721.76 682.28,-721.78 683.45,-725.08"/>
</g>
<!-- ImpVolObject&#45;&gt;Put -->
<g id="edge34" class="edge">
<title>ImpVolObject&#45;&gt;Put</title>
<path fill="none" stroke="black" stroke-width="0.5" d="M555.89,-785C594.3,-785 647.57,-785 680.97,-785"/>
<polygon fill="black" stroke="black" stroke-width="0.5" points="681.16,-786.75 686.16,-785 681.16,-783.25 681.16,-786.75"/>
</g>
<!-- Structured -->
<g id="node18" class="node">
<title>Structured</title>
<g id="a_node18"><a xlink:href="../Structured/structured.html#structured.Structured" xlink:title="Structured" target="_top">
<ellipse fill="white" stroke="#1e90ff" cx="218.9" cy="-556" rx="38.57" ry="27"/>
<text text-anchor="middle" x="218.9" y="-552.9" font-family="Vera Sans, DejaVu Sans, Liberation Sans, Arial, Helvetica, sans" font-size="12.00">Structured</text>
</a>
</g>
</g>
<!-- Structured&#45;&gt;ZCBond -->
<g id="edge48" class="edge">
<title>Structured&#45;&gt;ZCBond</title>
<path fill="none" stroke="black" stroke-width="0.5" d="M239.55,-578.86C259.67,-602.27 290.89,-638.59 311.92,-663.06"/>
<polygon fill="black" stroke="black" stroke-width="0.5" points="310.62,-664.23 315.2,-666.88 313.27,-661.94 310.62,-664.23"/>
</g>
<!-- Structured&#45;&gt;Derivative -->
<g id="edge21" class="edge">
<title>Structured&#45;&gt;Derivative</title>
<path fill="none" stroke="black" stroke-width="0.5" d="M239.55,-533.14C259.43,-510.01 290.14,-474.29 311.15,-449.83"/>
<polygon fill="black" stroke="black" stroke-width="0.5" points="312.51,-450.94 314.44,-446.01 309.85,-448.66 312.51,-450.94"/>
</g>
<!-- QuantoForward -->
<g id="node26" class="node">
<title>QuantoForward</title>
<g id="a_node26"><a xlink:href="../Structured/structured.html#structured.QuantoForward" xlink:title="QuantoForward" target="_top">
<ellipse fill="white" stroke="#1e90ff" cx="883.91" cy="-353" rx="54.05" ry="27"/>
<text text-anchor="middle" x="883.91" y="-349.9" font-family="Vera Sans, DejaVu Sans, Liberation Sans, Arial, Helvetica, sans" font-size="12.00">QuantoForward</text>
</a>
</g>
</g>
<!-- Forward&#45;&gt;QuantoForward -->
<g id="edge38" class="edge">
<title>Forward&#45;&gt;QuantoForward</title>
<path fill="none" stroke="black" stroke-width="0.5" d="M745.63,-382.31C768.94,-377.34 801.33,-370.42 828.8,-364.55"/>
<polygon fill="black" stroke="black" stroke-width="0.5" points="829.35,-366.23 833.87,-363.47 828.62,-362.8 829.35,-366.23"/>
</g>
<!-- Quanto -->
<g id="node24" class="node">
<title>Quanto</title>
<g id="a_node24"><a xlink:href="../Structured/structured.html#structured.Quanto" xlink:title="Quanto" target="_top">
<ellipse fill="white" stroke="#1e90ff" cx="713.31" cy="-479" rx="30.29" ry="27"/>
<text text-anchor="middle" x="713.31" y="-475.9" font-family="Vera Sans, DejaVu Sans, Liberation Sans, Arial, Helvetica, sans" font-size="12.00">Quanto</text>
</a>
</g>
</g>
<!-- Quanto&#45;&gt;QuantoCall -->
<g id="edge35" class="edge">
<title>Quanto&#45;&gt;QuantoCall</title>
<path fill="none" stroke="black" stroke-width="0.5" d="M743.68,-482.14C769.54,-484.9 807.63,-488.96 837.43,-492.14"/>
<polygon fill="black" stroke="black" stroke-width="0.5" points="837.35,-493.9 842.51,-492.69 837.73,-490.42 837.35,-493.9"/>
</g>
<!-- Quanto&#45;&gt;QuantoForward -->
<g id="edge37" class="edge">
<title>Quanto&#45;&gt;QuantoForward</title>
<path fill="none" stroke="black" stroke-width="0.5" d="M738.13,-462.84C752.83,-452.54 771.84,-438.61 787.67,-425 804.83,-410.25 805.87,-402.98 823.67,-389 829.51,-384.41 835.98,-379.94 842.44,-375.8"/>
<polygon fill="black" stroke="black" stroke-width="0.5" points="843.6,-377.13 846.9,-372.99 841.74,-374.17 843.6,-377.13"/>
</g>
<!-- QuantoMultiAsset -->
<g id="node27" class="node">
<title>QuantoMultiAsset</title>
<g id="a_node27"><a xlink:href="../Structured/structured.html#structured.QuantoMultiAsset" xlink:title="QuantoMultiAsset" target="_top">
<ellipse fill="white" stroke="#1e90ff" cx="883.91" cy="-425" rx="60.48" ry="27"/>
<text text-anchor="middle" x="883.91" y="-421.9" font-family="Vera Sans, DejaVu Sans, Liberation Sans, Arial, Helvetica, sans" font-size="12.00">QuantoMultiAsset</text>
</a>
</g>
</g>
<!-- Quanto&#45;&gt;QuantoMultiAsset -->
<g id="edge39" class="edge">
<title>Quanto&#45;&gt;QuantoMultiAsset</title>
<path fill="none" stroke="black" stroke-width="0.5" d="M742.15,-470.08C765.85,-462.49 800.56,-451.38 829.58,-442.08"/>
<polygon fill="black" stroke="black" stroke-width="0.5" points="830.33,-443.68 834.55,-440.49 829.26,-440.35 830.33,-443.68"/>
</g>
<!-- Quanto&#45;&gt;QuantoPut -->
<g id="edge40" class="edge">
<title>Quanto&#45;&gt;QuantoPut</title>
<path fill="none" stroke="black" stroke-width="0.5" d="M739.92,-492.67C768.54,-507.95 815.09,-532.79 847.26,-549.97"/>
<polygon fill="black" stroke="black" stroke-width="0.5" points="846.66,-551.63 851.9,-552.45 848.31,-548.55 846.66,-551.63"/>
</g>
<!-- ToleranceTableObject -->
<g id="node31" class="node">
<title>ToleranceTableObject</title>
<g id="a_node31"><a xlink:href="../../pypricing.pricing.html#pricing.excel_stuff.ToleranceTableObject" xlink:title="ToleranceTableObject" target="_top">
<ellipse fill="white" stroke="#1e90ff" cx="72.18" cy="-556" rx="72.36" ry="27"/>
<text text-anchor="middle" x="72.18" y="-552.9" font-family="Vera Sans, DejaVu Sans, Liberation Sans, Arial, Helvetica, sans" font-size="12.00">ToleranceTableObject</text>
</a>
</g>
</g>
<!-- ToleranceTableObject&#45;&gt;Structured -->
<g id="edge46" class="edge">
<title>ToleranceTableObject&#45;&gt;Structured</title>
<path fill="none" stroke="black" stroke-width="0.5" d="M144.69,-556C155.03,-556 165.38,-556 174.92,-556"/>
<polygon fill="black" stroke="black" stroke-width="0.5" points="175.13,-557.75 180.13,-556 175.13,-554.25 175.13,-557.75"/>
</g>
</g>
</svg>
