<?xml version="1.0" encoding="UTF-8" standalone="no"?>
<!DOCTYPE svg PUBLIC "-//W3C//DTD SVG 1.1//EN"
 "http://www.w3.org/Graphics/SVG/1.1/DTD/svg11.dtd">
<!-- Generated by graphviz version 2.50.0 (0)
 -->
<!-- Title: inheritance10caa3972d Pages: 1 -->
<svg width="526pt" height="494pt"
 viewBox="0.00 0.00 526.02 494.00" xmlns="http://www.w3.org/2000/svg" xmlns:xlink="http://www.w3.org/1999/xlink">
<g id="graph0" class="graph" transform="scale(1 1) rotate(0) translate(4 490)">
<title>inheritance10caa3972d</title>
<!-- ABC -->
<g id="node1" class="node">
<title>ABC</title>
<g id="a_node1"><a xlink:title="Helper class that provides a standard way to create an ABC using">
<ellipse fill="white" stroke="#1e90ff" cx="27" cy="-279" rx="27" ry="27"/>
<text text-anchor="middle" x="27" y="-275.9" font-family="Vera Sans, DejaVu Sans, Liberation Sans, Arial, Helvetica, sans" font-size="12.00">ABC</text>
</a>
</g>
</g>
<!-- DiscountCurve -->
<g id="node6" class="node">
<title>DiscountCurve</title>
<g id="a_node6"><a xlink:href="../Discount_curves/discount_curves.html#discount_curves.DiscountCurve" xlink:title="DiscountCurve" target="_top">
<ellipse fill="white" stroke="#1e90ff" cx="142.1" cy="-279" rx="52.2" ry="27"/>
<text text-anchor="middle" x="142.1" y="-275.9" font-family="Vera Sans, DejaVu Sans, Liberation Sans, Arial, Helvetica, sans" font-size="12.00">DiscountCurve</text>
</a>
</g>
</g>
<!-- ABC&#45;&gt;DiscountCurve -->
<g id="edge8" class="edge">
<title>ABC&#45;&gt;DiscountCurve</title>
<path fill="none" stroke="black" stroke-width="0.5" d="M54.23,-279C63.32,-279 73.88,-279 84.46,-279"/>
<polygon fill="black" stroke="black" stroke-width="0.5" points="84.64,-280.75 89.64,-279 84.64,-277.25 84.64,-280.75"/>
</g>
<!-- CDSCurve -->
<g id="node2" class="node">
<title>CDSCurve</title>
<g id="a_node2"><a xlink:href="../Discount_curves/discount_curves.html#discount_curves.CDSCurve" xlink:title="CDSCurve" target="_top">
<ellipse fill="white" stroke="#1e90ff" cx="438.79" cy="-459" rx="40.91" ry="27"/>
<text text-anchor="middle" x="438.79" y="-455.9" font-family="Vera Sans, DejaVu Sans, Liberation Sans, Arial, Helvetica, sans" font-size="12.00">CDSCurve</text>
</a>
</g>
</g>
<!-- LCExpCurve -->
<g id="node3" class="node">
<title>LCExpCurve</title>
<g id="a_node3"><a xlink:href="../Discount_curves/discount_curves.html#discount_curves.LCExpCurve" xlink:title="A subclass of DiscountCurve that represents a locally constant exponential discount curve. That is, basically (below for more details)," target="_top">
<ellipse fill="white" stroke="#1e90ff" cx="276.88" cy="-369" rx="46.85" ry="27"/>
<text text-anchor="middle" x="276.88" y="-365.9" font-family="Vera Sans, DejaVu Sans, Liberation Sans, Arial, Helvetica, sans" font-size="12.00">LCExpCurve</text>
</a>
</g>
</g>
<!-- LCExpCurve&#45;&gt;CDSCurve -->
<g id="edge1" class="edge">
<title>LCExpCurve&#45;&gt;CDSCurve</title>
<path fill="none" stroke="black" stroke-width="0.5" d="M307.06,-389.87C322.35,-400.39 341.58,-413 359.55,-423 372.23,-430.06 386.55,-436.94 399.43,-442.76"/>
<polygon fill="black" stroke="black" stroke-width="0.5" points="398.83,-444.41 404.11,-444.86 400.26,-441.22 398.83,-444.41"/>
</g>
<!-- CDSCurve_Allmats -->
<g id="node4" class="node">
<title>CDSCurve_Allmats</title>
<g id="a_node4"><a xlink:href="../Discount_curves/discount_curves.html#discount_curves.CDSCurve_Allmats" xlink:title="CDSCurve_Allmats" target="_top">
<ellipse fill="white" stroke="#1e90ff" cx="438.79" cy="-387" rx="66.42" ry="27"/>
<text text-anchor="middle" x="438.79" y="-383.9" font-family="Vera Sans, DejaVu Sans, Liberation Sans, Arial, Helvetica, sans" font-size="12.00">CDSCurve_Allmats</text>
</a>
</g>
</g>
<!-- LCExpCurve&#45;&gt;CDSCurve_Allmats -->
<g id="edge2" class="edge">
<title>LCExpCurve&#45;&gt;CDSCurve_Allmats</title>
<path fill="none" stroke="black" stroke-width="0.5" d="M322.85,-374.06C337.29,-375.69 353.63,-377.53 369.36,-379.3"/>
<polygon fill="black" stroke="black" stroke-width="0.5" points="369.5,-381.07 374.66,-379.89 369.89,-377.6 369.5,-381.07"/>
</g>
<!-- CorporateCurve -->
<g id="node7" class="node">
<title>CorporateCurve</title>
<g id="a_node7"><a xlink:href="../Discount_curves/discount_curves.html#discount_curves.CorporateCurve" xlink:title="CorporateCurve" target="_top">
<ellipse fill="white" stroke="#1e90ff" cx="438.79" cy="-315" rx="55.22" ry="27"/>
<text text-anchor="middle" x="438.79" y="-311.9" font-family="Vera Sans, DejaVu Sans, Liberation Sans, Arial, Helvetica, sans" font-size="12.00">CorporateCurve</text>
</a>
</g>
</g>
<!-- LCExpCurve&#45;&gt;CorporateCurve -->
<g id="edge4" class="edge">
<title>LCExpCurve&#45;&gt;CorporateCurve</title>
<path fill="none" stroke="black" stroke-width="0.5" d="M317.82,-355.51C339.06,-348.34 365.39,-339.45 387.96,-331.83"/>
<polygon fill="black" stroke="black" stroke-width="0.5" points="388.54,-333.48 392.72,-330.22 387.42,-330.16 388.54,-333.48"/>
</g>
<!-- CRDC -->
<g id="node5" class="node">
<title>CRDC</title>
<g id="a_node5"><a xlink:href="../Discount_curves/discount_curves.html#discount_curves.CRDC" xlink:title="This class represents a constant rate discount curve. It inherits from the DiscountCurve class." target="_top">
<ellipse fill="white" stroke="#1e90ff" cx="276.88" cy="-279" rx="28.53" ry="27"/>
<text text-anchor="middle" x="276.88" y="-275.9" font-family="Vera Sans, DejaVu Sans, Liberation Sans, Arial, Helvetica, sans" font-size="12.00">CRDC</text>
</a>
</g>
</g>
<!-- DiscountCurve&#45;&gt;LCExpCurve -->
<g id="edge9" class="edge">
<title>DiscountCurve&#45;&gt;LCExpCurve</title>
<path fill="none" stroke="black" stroke-width="0.5" d="M174.57,-300.33C194.61,-313.92 220.6,-331.53 241.23,-345.52"/>
<polygon fill="black" stroke="black" stroke-width="0.5" points="240.43,-347.09 245.55,-348.44 242.39,-344.19 240.43,-347.09"/>
</g>
<!-- DiscountCurve&#45;&gt;CRDC -->
<g id="edge3" class="edge">
<title>DiscountCurve&#45;&gt;CRDC</title>
<path fill="none" stroke="black" stroke-width="0.5" d="M194.44,-279C210.68,-279 228.2,-279 242.81,-279"/>
<polygon fill="black" stroke="black" stroke-width="0.5" points="243.06,-280.75 248.06,-279 243.06,-277.25 243.06,-280.75"/>
</g>
<!-- CubicDC -->
<g id="node8" class="node">
<title>CubicDC</title>
<g id="a_node8"><a xlink:href="../Discount_curves/discount_curves.html#discount_curves.CubicDC" xlink:title="Implements a discount curve using cubic spline interpolation." target="_top">
<ellipse fill="white" stroke="#1e90ff" cx="276.88" cy="-171" rx="35.64" ry="27"/>
<text text-anchor="middle" x="276.88" y="-167.9" font-family="Vera Sans, DejaVu Sans, Liberation Sans, Arial, Helvetica, sans" font-size="12.00">CubicDC</text>
</a>
</g>
</g>
<!-- DiscountCurve&#45;&gt;CubicDC -->
<g id="edge5" class="edge">
<title>DiscountCurve&#45;&gt;CubicDC</title>
<path fill="none" stroke="black" stroke-width="0.5" d="M170.94,-256.36C193.41,-238.08 224.92,-212.45 247.53,-194.06"/>
<polygon fill="black" stroke="black" stroke-width="0.5" points="248.87,-195.22 251.65,-190.71 246.66,-192.51 248.87,-195.22"/>
</g>
<!-- CubicSplineSwapCurve -->
<g id="node9" class="node">
<title>CubicSplineSwapCurve</title>
<g id="a_node9"><a xlink:href="../Discount_curves/discount_curves.html#discount_curves.CubicSplineSwapCurve" xlink:title="A class for computing the swap curve using cubic spline interpolation." target="_top">
<ellipse fill="white" stroke="#1e90ff" cx="438.79" cy="-243" rx="79.48" ry="27"/>
<text text-anchor="middle" x="438.79" y="-239.9" font-family="Vera Sans, DejaVu Sans, Liberation Sans, Arial, Helvetica, sans" font-size="12.00">CubicSplineSwapCurve</text>
</a>
</g>
</g>
<!-- CubicDC&#45;&gt;CubicSplineSwapCurve -->
<g id="edge6" class="edge">
<title>CubicDC&#45;&gt;CubicSplineSwapCurve</title>
<path fill="none" stroke="black" stroke-width="0.5" d="M307.95,-184.54C329.76,-194.36 359.8,-207.89 385.5,-219.46"/>
<polygon fill="black" stroke="black" stroke-width="0.5" points="384.96,-221.14 390.24,-221.59 386.4,-217.94 384.96,-221.14"/>
</g>
<!-- DepositCurve -->
<g id="node10" class="node">
<title>DepositCurve</title>
<g id="a_node10"><a xlink:href="../Discount_curves/discount_curves.html#discount_curves.DepositCurve" xlink:title="A class used to represent a Deposit Curve." target="_top">
<ellipse fill="white" stroke="#1e90ff" cx="438.79" cy="-171" rx="48.69" ry="27"/>
<text text-anchor="middle" x="438.79" y="-167.9" font-family="Vera Sans, DejaVu Sans, Liberation Sans, Arial, Helvetica, sans" font-size="12.00">DepositCurve</text>
</a>
</g>
</g>
<!-- CubicDC&#45;&gt;DepositCurve -->
<g id="edge7" class="edge">
<title>CubicDC&#45;&gt;DepositCurve</title>
<path fill="none" stroke="black" stroke-width="0.5" d="M312.97,-171C333.91,-171 360.92,-171 384.46,-171"/>
<polygon fill="black" stroke="black" stroke-width="0.5" points="384.74,-172.75 389.74,-171 384.74,-169.25 384.74,-172.75"/>
</g>
<!-- SWICurve -->
<g id="node11" class="node">
<title>SWICurve</title>
<g id="a_node11"><a xlink:href="../Discount_curves/discount_curves.html#discount_curves.SWICurve" xlink:title="SWICurve is a subclass of CubicDC for managing seasonal adjustment of inflation swaps." target="_top">
<ellipse fill="white" stroke="#1e90ff" cx="438.79" cy="-99" rx="38.57" ry="27"/>
<text text-anchor="middle" x="438.79" y="-95.9" font-family="Vera Sans, DejaVu Sans, Liberation Sans, Arial, Helvetica, sans" font-size="12.00">SWICurve</text>
</a>
</g>
</g>
<!-- CubicDC&#45;&gt;SWICurve -->
<g id="edge10" class="edge">
<title>CubicDC&#45;&gt;SWICurve</title>
<path fill="none" stroke="black" stroke-width="0.5" d="M307.95,-157.46C334.38,-145.56 372.91,-128.21 401.14,-115.5"/>
<polygon fill="black" stroke="black" stroke-width="0.5" points="402.09,-116.99 405.93,-113.35 400.65,-113.8 402.09,-116.99"/>
</g>
<!-- ZCCurve -->
<g id="node12" class="node">
<title>ZCCurve</title>
<g id="a_node12"><a xlink:href="../Discount_curves/discount_curves.html#discount_curves.ZCCurve" xlink:title="Implements a Zero Coupon Curve using cubic spline interpolation." target="_top">
<ellipse fill="white" stroke="#1e90ff" cx="438.79" cy="-27" rx="35.06" ry="27"/>
<text text-anchor="middle" x="438.79" y="-23.9" font-family="Vera Sans, DejaVu Sans, Liberation Sans, Arial, Helvetica, sans" font-size="12.00">ZCCurve</text>
</a>
</g>
</g>
<!-- CubicDC&#45;&gt;ZCCurve -->
<g id="edge11" class="edge">
<title>CubicDC&#45;&gt;ZCCurve</title>
<path fill="none" stroke="black" stroke-width="0.5" d="M291.62,-146.32C305.97,-122.41 330.42,-86.42 359.55,-63 371.9,-53.07 387.44,-45.19 401.41,-39.36"/>
<polygon fill="black" stroke="black" stroke-width="0.5" points="402.11,-40.97 406.08,-37.47 400.79,-37.73 402.11,-40.97"/>
</g>
</g>
</svg>
