<?xml version="1.0" encoding="UTF-8" standalone="no"?>
<!DOCTYPE svg PUBLIC "-//W3C//DTD SVG 1.1//EN"
 "http://www.w3.org/Graphics/SVG/1.1/DTD/svg11.dtd">
<!-- Generated by graphviz version 2.50.0 (0)
 -->
<!-- Title: inheritance398f4c355b Pages: 1 -->
<svg width="573pt" height="422pt"
 viewBox="0.00 0.00 572.70 422.00" xmlns="http://www.w3.org/2000/svg" xmlns:xlink="http://www.w3.org/1999/xlink">
<g id="graph0" class="graph" transform="scale(1 1) rotate(0) translate(4 418)">
<title>inheritance398f4c355b</title>
<!-- Bond -->
<g id="node1" class="node">
<title>Bond</title>
<g id="a_node1"><a xlink:href="../Fixed_Income/fixedincome.html#fixedincome.Bond" xlink:title="Bond" target="_top">
<ellipse fill="white" stroke="#1e90ff" cx="207.36" cy="-135" rx="27" ry="27"/>
<text text-anchor="middle" x="207.36" y="-131.9" font-family="Vera Sans, DejaVu Sans, Liberation Sans, Arial, Helvetica, sans" font-size="12.00">Bond</text>
</a>
</g>
</g>
<!-- CouponBond -->
<g id="node3" class="node">
<title>CouponBond</title>
<g id="a_node3"><a xlink:href="../Fixed_Income/fixedincome.html#fixedincome.CouponBond" xlink:title="CouponBond" target="_top">
<ellipse fill="white" stroke="#1e90ff" cx="318.12" cy="-315" rx="47.52" ry="27"/>
<text text-anchor="middle" x="318.12" y="-311.9" font-family="Vera Sans, DejaVu Sans, Liberation Sans, Arial, Helvetica, sans" font-size="12.00">CouponBond</text>
</a>
</g>
</g>
<!-- Bond&#45;&gt;CouponBond -->
<g id="edge2" class="edge">
<title>Bond&#45;&gt;CouponBond</title>
<path fill="none" stroke="black" stroke-width="0.5" d="M222.14,-157.8C241.61,-190.03 277.23,-248.97 298.88,-284.81"/>
<polygon fill="black" stroke="black" stroke-width="0.5" points="297.63,-286.12 301.71,-289.49 300.62,-284.31 297.63,-286.12"/>
</g>
<!-- MBS -->
<g id="node6" class="node">
<title>MBS</title>
<g id="a_node6"><a xlink:href="../Fixed_Income/fixedincome.html#fixedincome.MBS" xlink:title="MBS" target="_top">
<ellipse fill="white" stroke="#1e90ff" cx="318.12" cy="-171" rx="27" ry="27"/>
<text text-anchor="middle" x="318.12" y="-167.9" font-family="Vera Sans, DejaVu Sans, Liberation Sans, Arial, Helvetica, sans" font-size="12.00">MBS</text>
</a>
</g>
</g>
<!-- Bond&#45;&gt;MBS -->
<g id="edge10" class="edge">
<title>Bond&#45;&gt;MBS</title>
<path fill="none" stroke="black" stroke-width="0.5" d="M233.32,-143.26C249.34,-148.56 270.25,-155.48 287.17,-161.09"/>
<polygon fill="black" stroke="black" stroke-width="0.5" points="286.99,-162.87 292.29,-162.78 288.09,-159.55 286.99,-162.87"/>
</g>
<!-- Sinkable -->
<g id="node8" class="node">
<title>Sinkable</title>
<g id="a_node8"><a xlink:href="../Fixed_Income/fixedincome.html#fixedincome.Sinkable" xlink:title="Sinkable" target="_top">
<ellipse fill="white" stroke="#1e90ff" cx="318.12" cy="-99" rx="34.97" ry="27"/>
<text text-anchor="middle" x="318.12" y="-95.9" font-family="Vera Sans, DejaVu Sans, Liberation Sans, Arial, Helvetica, sans" font-size="12.00">Sinkable</text>
</a>
</g>
</g>
<!-- Bond&#45;&gt;Sinkable -->
<g id="edge11" class="edge">
<title>Bond&#45;&gt;Sinkable</title>
<path fill="none" stroke="black" stroke-width="0.5" d="M233.32,-126.74C247.41,-122.08 265.28,-116.16 280.89,-110.99"/>
<polygon fill="black" stroke="black" stroke-width="0.5" points="281.46,-112.65 285.66,-109.41 280.36,-109.32 281.46,-112.65"/>
</g>
<!-- MARF -->
<g id="node12" class="node">
<title>MARF</title>
<g id="a_node12"><a xlink:href="../Fixed_Income/fixedincome.html#fixedincome.MARF" xlink:title="MARF" target="_top">
<ellipse fill="white" stroke="#1e90ff" cx="318.12" cy="-27" rx="27.86" ry="27"/>
<text text-anchor="middle" x="318.12" y="-23.9" font-family="Vera Sans, DejaVu Sans, Liberation Sans, Arial, Helvetica, sans" font-size="12.00">MARF</text>
</a>
</g>
</g>
<!-- Bond&#45;&gt;MARF -->
<g id="edge9" class="edge">
<title>Bond&#45;&gt;MARF</title>
<path fill="none" stroke="black" stroke-width="0.5" d="M224.69,-113.83C236.62,-98.92 253.59,-78.88 270.36,-63 276.65,-57.05 283.88,-51.11 290.74,-45.82"/>
<polygon fill="black" stroke="black" stroke-width="0.5" points="292.04,-47.03 294.96,-42.61 289.92,-44.24 292.04,-47.03"/>
</g>
<!-- ToleranceTableObject -->
<g id="node2" class="node">
<title>ToleranceTableObject</title>
<g id="a_node2"><a xlink:href="../../pypricing.pricing.html#pricing.excel_stuff.ToleranceTableObject" xlink:title="ToleranceTableObject" target="_top">
<ellipse fill="white" stroke="#1e90ff" cx="72.18" cy="-135" rx="72.36" ry="27"/>
<text text-anchor="middle" x="72.18" y="-131.9" font-family="Vera Sans, DejaVu Sans, Liberation Sans, Arial, Helvetica, sans" font-size="12.00">ToleranceTableObject</text>
</a>
</g>
</g>
<!-- ToleranceTableObject&#45;&gt;Bond -->
<g id="edge1" class="edge">
<title>ToleranceTableObject&#45;&gt;Bond</title>
<path fill="none" stroke="black" stroke-width="0.5" d="M144.45,-135C155.2,-135 165.79,-135 175.08,-135"/>
<polygon fill="black" stroke="black" stroke-width="0.5" points="175.11,-136.75 180.11,-135 175.11,-133.25 175.11,-136.75"/>
</g>
<!-- FixedCoupon -->
<g id="node4" class="node">
<title>FixedCoupon</title>
<g id="a_node4"><a xlink:href="../Fixed_Income/fixedincome.html#fixedincome.FixedCoupon" xlink:title="FixedCoupon" target="_top">
<ellipse fill="white" stroke="#1e90ff" cx="483.29" cy="-387" rx="48.11" ry="27"/>
<text text-anchor="middle" x="483.29" y="-383.9" font-family="Vera Sans, DejaVu Sans, Liberation Sans, Arial, Helvetica, sans" font-size="12.00">FixedCoupon</text>
</a>
</g>
</g>
<!-- CouponBond&#45;&gt;FixedCoupon -->
<g id="edge3" class="edge">
<title>CouponBond&#45;&gt;FixedCoupon</title>
<path fill="none" stroke="black" stroke-width="0.5" d="M356.15,-331.34C381.11,-342.35 414.1,-356.91 440.08,-368.37"/>
<polygon fill="black" stroke="black" stroke-width="0.5" points="439.57,-370.06 444.85,-370.48 440.98,-366.86 439.57,-370.06"/>
</g>
<!-- FloatingCoupon -->
<g id="node9" class="node">
<title>FloatingCoupon</title>
<g id="a_node9"><a xlink:href="../Fixed_Income/fixedincome.html#fixedincome.FloatingCoupon" xlink:title="FloatingCoupon" target="_top">
<ellipse fill="white" stroke="#1e90ff" cx="483.29" cy="-315" rx="55.8" ry="27"/>
<text text-anchor="middle" x="483.29" y="-311.9" font-family="Vera Sans, DejaVu Sans, Liberation Sans, Arial, Helvetica, sans" font-size="12.00">FloatingCoupon</text>
</a>
</g>
</g>
<!-- CouponBond&#45;&gt;FloatingCoupon -->
<g id="edge6" class="edge">
<title>CouponBond&#45;&gt;FloatingCoupon</title>
<path fill="none" stroke="black" stroke-width="0.5" d="M366.32,-315C383.7,-315 403.62,-315 422,-315"/>
<polygon fill="black" stroke="black" stroke-width="0.5" points="422.14,-316.75 427.14,-315 422.14,-313.25 422.14,-316.75"/>
</g>
<!-- FixedCouponMBS -->
<g id="node5" class="node">
<title>FixedCouponMBS</title>
<g id="a_node5"><a xlink:href="../Fixed_Income/fixedincome.html#fixedincome.FixedCouponMBS" xlink:title="FixedCouponMBS" target="_top">
<ellipse fill="white" stroke="#1e90ff" cx="483.29" cy="-243" rx="62.91" ry="27"/>
<text text-anchor="middle" x="483.29" y="-239.9" font-family="Vera Sans, DejaVu Sans, Liberation Sans, Arial, Helvetica, sans" font-size="12.00">FixedCouponMBS</text>
</a>
</g>
</g>
<!-- MBS&#45;&gt;FixedCouponMBS -->
<g id="edge4" class="edge">
<title>MBS&#45;&gt;FixedCouponMBS</title>
<path fill="none" stroke="black" stroke-width="0.5" d="M343.2,-181.62C367.01,-192.13 404.13,-208.51 434.03,-221.7"/>
<polygon fill="black" stroke="black" stroke-width="0.5" points="433.48,-223.37 438.76,-223.79 434.89,-220.17 433.48,-223.37"/>
</g>
<!-- FloatingCouponMBS -->
<g id="node10" class="node">
<title>FloatingCouponMBS</title>
<g id="a_node10"><a xlink:href="../Fixed_Income/fixedincome.html#fixedincome.FloatingCouponMBS" xlink:title="FloatingCouponMBS" target="_top">
<ellipse fill="white" stroke="#1e90ff" cx="483.29" cy="-171" rx="70.02" ry="27"/>
<text text-anchor="middle" x="483.29" y="-167.9" font-family="Vera Sans, DejaVu Sans, Liberation Sans, Arial, Helvetica, sans" font-size="12.00">FloatingCouponMBS</text>
</a>
</g>
</g>
<!-- MBS&#45;&gt;FloatingCouponMBS -->
<g id="edge7" class="edge">
<title>MBS&#45;&gt;FloatingCouponMBS</title>
<path fill="none" stroke="black" stroke-width="0.5" d="M345.34,-171C362.42,-171 385.64,-171 408.11,-171"/>
<polygon fill="black" stroke="black" stroke-width="0.5" points="408.19,-172.75 413.19,-171 408.19,-169.25 408.19,-172.75"/>
</g>
<!-- FixedCouponSinkable -->
<g id="node7" class="node">
<title>FixedCouponSinkable</title>
<g id="a_node7"><a xlink:href="../Fixed_Income/fixedincome.html#fixedincome.FixedCouponSinkable" xlink:title="FixedCouponSinkable" target="_top">
<ellipse fill="white" stroke="#1e90ff" cx="483.29" cy="-99" rx="74.21" ry="27"/>
<text text-anchor="middle" x="483.29" y="-95.9" font-family="Vera Sans, DejaVu Sans, Liberation Sans, Arial, Helvetica, sans" font-size="12.00">FixedCouponSinkable</text>
</a>
</g>
</g>
<!-- Sinkable&#45;&gt;FixedCouponSinkable -->
<g id="edge5" class="edge">
<title>Sinkable&#45;&gt;FixedCouponSinkable</title>
<path fill="none" stroke="black" stroke-width="0.5" d="M352.93,-99C367.78,-99 385.88,-99 403.79,-99"/>
<polygon fill="black" stroke="black" stroke-width="0.5" points="403.83,-100.75 408.83,-99 403.83,-97.25 403.83,-100.75"/>
</g>
<!-- FloatingCouponSinkable -->
<g id="node11" class="node">
<title>FloatingCouponSinkable</title>
<g id="a_node11"><a xlink:href="../Fixed_Income/fixedincome.html#fixedincome.FloatingCouponSinkable" xlink:title="FloatingCouponSinkable" target="_top">
<ellipse fill="white" stroke="#1e90ff" cx="483.29" cy="-27" rx="81.32" ry="27"/>
<text text-anchor="middle" x="483.29" y="-23.9" font-family="Vera Sans, DejaVu Sans, Liberation Sans, Arial, Helvetica, sans" font-size="12.00">FloatingCouponSinkable</text>
</a>
</g>
</g>
<!-- Sinkable&#45;&gt;FloatingCouponSinkable -->
<g id="edge8" class="edge">
<title>Sinkable&#45;&gt;FloatingCouponSinkable</title>
<path fill="none" stroke="black" stroke-width="0.5" d="M348.67,-85.96C370.98,-76.12 402.21,-62.34 428.86,-50.58"/>
<polygon fill="black" stroke="black" stroke-width="0.5" points="429.57,-52.18 433.44,-48.56 428.15,-48.98 429.57,-52.18"/>
</g>
</g>
</svg>
