<?xml version="1.0" encoding="UTF-8" standalone="no"?>
<!DOCTYPE svg PUBLIC "-//W3C//DTD SVG 1.1//EN"
 "http://www.w3.org/Graphics/SVG/1.1/DTD/svg11.dtd">
<!-- Generated by graphviz version 2.50.0 (0)
 -->
<!-- Title: inheritance398fa8e1d8 Pages: 1 -->
<svg width="939pt" height="840pt"
 viewBox="0.00 0.00 939.13 840.00" xmlns="http://www.w3.org/2000/svg" xmlns:xlink="http://www.w3.org/1999/xlink">
<g id="graph0" class="graph" transform="scale(1 1) rotate(0) translate(4 836)">
<title>inheritance398fa8e1d8</title>
<!-- CMSSpreadCoupon -->
<g id="node1" class="node">
<title>CMSSpreadCoupon</title>
<g id="a_node1"><a xlink:href="../Interest_Rate_Products/irproducts.html#irproducts.CMSSpreadCoupon" xlink:title="CMSSpreadCoupon" target="_top">
<ellipse fill="white" stroke="#1e90ff" cx="522.1" cy="-554" rx="67.68" ry="27"/>
<text text-anchor="middle" x="522.1" y="-550.9" font-family="Vera Sans, DejaVu Sans, Liberation Sans, Arial, Helvetica, sans" font-size="12.00">CMSSpreadCoupon</text>
</a>
</g>
</g>
<!-- Derivative -->
<g id="node2" class="node">
<title>Derivative</title>
<g id="a_node2"><a xlink:href="../../pypricing.pricing.html#pricing.structured.Derivative" xlink:title="date format: %Y%m%d" target="_top">
<ellipse fill="white" stroke="#1e90ff" cx="362.36" cy="-518" rx="38.57" ry="27"/>
<text text-anchor="middle" x="362.36" y="-514.9" font-family="Vera Sans, DejaVu Sans, Liberation Sans, Arial, Helvetica, sans" font-size="12.00">Derivative</text>
</a>
</g>
</g>
<!-- Derivative&#45;&gt;CMSSpreadCoupon -->
<g id="edge1" class="edge">
<title>Derivative&#45;&gt;CMSSpreadCoupon</title>
<path fill="none" stroke="black" stroke-width="0.5" d="M399.15,-526.17C416.5,-530.13 437.85,-535 457.82,-539.56"/>
<polygon fill="black" stroke="black" stroke-width="0.5" points="457.6,-541.3 462.86,-540.71 458.38,-537.89 457.6,-541.3"/>
</g>
<!-- Forward -->
<g id="node4" class="node">
<title>Forward</title>
<g id="a_node4"><a xlink:href="../../pypricing.pricing.html#pricing.structured.Forward" xlink:title="date format: %Y%m%d" target="_top">
<ellipse fill="white" stroke="#1e90ff" cx="522.1" cy="-410" rx="33.21" ry="27"/>
<text text-anchor="middle" x="522.1" y="-406.9" font-family="Vera Sans, DejaVu Sans, Liberation Sans, Arial, Helvetica, sans" font-size="12.00">Forward</text>
</a>
</g>
</g>
<!-- Derivative&#45;&gt;Forward -->
<g id="edge14" class="edge">
<title>Derivative&#45;&gt;Forward</title>
<path fill="none" stroke="black" stroke-width="0.5" d="M387.17,-497.23C405.02,-482.15 430.37,-461.71 454.26,-446 465.05,-438.9 477.37,-431.96 488.47,-426.1"/>
<polygon fill="black" stroke="black" stroke-width="0.5" points="489.53,-427.52 493.15,-423.66 487.91,-424.42 489.53,-427.52"/>
</g>
<!-- GeneralSwap -->
<g id="node8" class="node">
<title>GeneralSwap</title>
<g id="a_node8"><a xlink:href="../Interest_Rate_Products/irproducts.html#irproducts.GeneralSwap" xlink:title="GeneralSwap" target="_top">
<ellipse fill="white" stroke="#1e90ff" cx="522.1" cy="-194" rx="48.69" ry="27"/>
<text text-anchor="middle" x="522.1" y="-190.9" font-family="Vera Sans, DejaVu Sans, Liberation Sans, Arial, Helvetica, sans" font-size="12.00">GeneralSwap</text>
</a>
</g>
</g>
<!-- Derivative&#45;&gt;GeneralSwap -->
<g id="edge17" class="edge">
<title>Derivative&#45;&gt;GeneralSwap</title>
<path fill="none" stroke="black" stroke-width="0.5" d="M370.57,-491.22C388.91,-423.77 437.08,-250.75 454.26,-230 460.35,-222.63 468.36,-216.55 476.71,-211.61"/>
<polygon fill="black" stroke="black" stroke-width="0.5" points="477.88,-212.97 481.38,-208.99 476.16,-209.92 477.88,-212.97"/>
</g>
<!-- Vanilla -->
<g id="node10" class="node">
<title>Vanilla</title>
<g id="a_node10"><a xlink:href="../../pypricing.pricing.html#pricing.structured.Vanilla" xlink:title="This class precomputes everything that is common for puts and calls. EXCEPT FOR IMPVOL which uses .set_, which" target="_top">
<ellipse fill="white" stroke="#1e90ff" cx="522.1" cy="-482" rx="28.53" ry="27"/>
<text text-anchor="middle" x="522.1" y="-478.9" font-family="Vera Sans, DejaVu Sans, Liberation Sans, Arial, Helvetica, sans" font-size="12.00">Vanilla</text>
</a>
</g>
</g>
<!-- Derivative&#45;&gt;Vanilla -->
<g id="edge37" class="edge">
<title>Derivative&#45;&gt;Vanilla</title>
<path fill="none" stroke="black" stroke-width="0.5" d="M399.15,-509.83C426.08,-503.69 462.67,-495.33 488.73,-489.39"/>
<polygon fill="black" stroke="black" stroke-width="0.5" points="489.31,-491.05 493.79,-488.23 488.53,-487.64 489.31,-491.05"/>
</g>
<!-- CapFloor -->
<g id="node12" class="node">
<title>CapFloor</title>
<g id="a_node12"><a xlink:href="../Interest_Rate_Products/irproducts.html#irproducts.CapFloor" xlink:title="CapFloor" target="_top">
<ellipse fill="white" stroke="#1e90ff" cx="522.1" cy="-770" rx="36.23" ry="27"/>
<text text-anchor="middle" x="522.1" y="-766.9" font-family="Vera Sans, DejaVu Sans, Liberation Sans, Arial, Helvetica, sans" font-size="12.00">CapFloor</text>
</a>
</g>
</g>
<!-- Derivative&#45;&gt;CapFloor -->
<g id="edge10" class="edge">
<title>Derivative&#45;&gt;CapFloor</title>
<path fill="none" stroke="black" stroke-width="0.5" d="M368.53,-544.7C378.31,-588.87 403.23,-677.84 454.26,-734 462.55,-743.13 473.72,-750.4 484.55,-755.95"/>
<polygon fill="black" stroke="black" stroke-width="0.5" points="483.9,-757.58 489.16,-758.22 485.45,-754.44 483.9,-757.58"/>
</g>
<!-- Swaption -->
<g id="node20" class="node">
<title>Swaption</title>
<g id="a_node20"><a xlink:href="../Interest_Rate_Products/irproducts.html#irproducts.Swaption" xlink:title="Swaption" target="_top">
<ellipse fill="white" stroke="#1e90ff" cx="694.86" cy="-797" rx="36.23" ry="27"/>
<text text-anchor="middle" x="694.86" y="-793.9" font-family="Vera Sans, DejaVu Sans, Liberation Sans, Arial, Helvetica, sans" font-size="12.00">Swaption</text>
</a>
</g>
</g>
<!-- Derivative&#45;&gt;Swaption -->
<g id="edge31" class="edge">
<title>Derivative&#45;&gt;Swaption</title>
<path fill="none" stroke="black" stroke-width="0.5" d="M367.74,-544.91C379.01,-610.27 411.12,-774.38 454.26,-806 514.1,-849.87 606.77,-828.28 657.54,-811.13"/>
<polygon fill="black" stroke="black" stroke-width="0.5" points="658.16,-812.76 662.32,-809.48 657.03,-809.45 658.16,-812.76"/>
</g>
<!-- RangeAccrual -->
<g id="node23" class="node">
<title>RangeAccrual</title>
<g id="a_node23"><a xlink:href="../Interest_Rate_Products/irproducts.html#irproducts.RangeAccrual" xlink:title="RangeAccrual" target="_top">
<ellipse fill="white" stroke="#1e90ff" cx="522.1" cy="-626" rx="50.45" ry="27"/>
<text text-anchor="middle" x="522.1" y="-622.9" font-family="Vera Sans, DejaVu Sans, Liberation Sans, Arial, Helvetica, sans" font-size="12.00">RangeAccrual</text>
</a>
</g>
</g>
<!-- Derivative&#45;&gt;RangeAccrual -->
<g id="edge24" class="edge">
<title>Derivative&#45;&gt;RangeAccrual</title>
<path fill="none" stroke="black" stroke-width="0.5" d="M387.17,-538.77C405.02,-553.85 430.37,-574.29 454.26,-590 462.25,-595.26 471.08,-600.43 479.63,-605.13"/>
<polygon fill="black" stroke="black" stroke-width="0.5" points="479.12,-606.85 484.34,-607.7 480.79,-603.77 479.12,-606.85"/>
</g>
<!-- CMSSpreadForward -->
<g id="node3" class="node">
<title>CMSSpreadForward</title>
<g id="a_node3"><a xlink:href="../Interest_Rate_Products/irproducts.html#irproducts.CMSSpreadForward" xlink:title="CMSSpreadForward" target="_top">
<ellipse fill="white" stroke="#1e90ff" cx="694.86" cy="-338" rx="68.85" ry="27"/>
<text text-anchor="middle" x="694.86" y="-334.9" font-family="Vera Sans, DejaVu Sans, Liberation Sans, Arial, Helvetica, sans" font-size="12.00">CMSSpreadForward</text>
</a>
</g>
</g>
<!-- Forward&#45;&gt;CMSSpreadForward -->
<g id="edge2" class="edge">
<title>Forward&#45;&gt;CMSSpreadForward</title>
<path fill="none" stroke="black" stroke-width="0.5" d="M552.06,-397.79C576.81,-387.35 613.01,-372.09 642.63,-359.6"/>
<polygon fill="black" stroke="black" stroke-width="0.5" points="643.4,-361.17 647.33,-357.62 642.04,-357.95 643.4,-361.17"/>
</g>
<!-- DifferenceRate -->
<g id="node5" class="node">
<title>DifferenceRate</title>
<g id="a_node5"><a xlink:href="../../pypricing.pricing.html#pricing.ratecurves.DifferenceRate" xlink:title="DifferenceRate" target="_top">
<ellipse fill="white" stroke="#1e90ff" cx="522.1" cy="-338" rx="52.79" ry="27"/>
<text text-anchor="middle" x="522.1" y="-334.9" font-family="Vera Sans, DejaVu Sans, Liberation Sans, Arial, Helvetica, sans" font-size="12.00">DifferenceRate</text>
</a>
</g>
</g>
<!-- DifferenceRate&#45;&gt;CMSSpreadForward -->
<g id="edge3" class="edge">
<title>DifferenceRate&#45;&gt;CMSSpreadForward</title>
<path fill="none" stroke="black" stroke-width="0.5" d="M574.79,-338C589.26,-338 605.26,-338 620.71,-338"/>
<polygon fill="black" stroke="black" stroke-width="0.5" points="620.93,-339.75 625.93,-338 620.93,-336.25 620.93,-339.75"/>
</g>
<!-- CMSSpreadSwap -->
<g id="node7" class="node">
<title>CMSSpreadSwap</title>
<g id="a_node7"><a xlink:href="../Interest_Rate_Products/irproducts.html#irproducts.CMSSpreadSwap" xlink:title="CMSSpreadSwap" target="_top">
<ellipse fill="white" stroke="#1e90ff" cx="694.86" cy="-266" rx="61.16" ry="27"/>
<text text-anchor="middle" x="694.86" y="-262.9" font-family="Vera Sans, DejaVu Sans, Liberation Sans, Arial, Helvetica, sans" font-size="12.00">CMSSpreadSwap</text>
</a>
</g>
</g>
<!-- DifferenceRate&#45;&gt;CMSSpreadSwap -->
<g id="edge6" class="edge">
<title>DifferenceRate&#45;&gt;CMSSpreadSwap</title>
<path fill="none" stroke="black" stroke-width="0.5" d="M563.56,-320.94C588.08,-310.6 619.49,-297.36 645.34,-286.46"/>
<polygon fill="black" stroke="black" stroke-width="0.5" points="646.17,-288.01 650.09,-284.45 644.81,-284.78 646.17,-288.01"/>
</g>
<!-- GSCFRate -->
<g id="node6" class="node">
<title>GSCFRate</title>
<g id="a_node6"><a xlink:href="../../pypricing.pricing.html#pricing.ratecurves.GSCFRate" xlink:title="GSCFRate" target="_top">
<ellipse fill="white" stroke="#1e90ff" cx="522.1" cy="-266" rx="41.49" ry="27"/>
<text text-anchor="middle" x="522.1" y="-262.9" font-family="Vera Sans, DejaVu Sans, Liberation Sans, Arial, Helvetica, sans" font-size="12.00">GSCFRate</text>
</a>
</g>
</g>
<!-- GSCFRate&#45;&gt;CMSSpreadForward -->
<g id="edge4" class="edge">
<title>GSCFRate&#45;&gt;CMSSpreadForward</title>
<path fill="none" stroke="black" stroke-width="0.5" d="M557.24,-280.4C581.62,-290.68 614.85,-304.69 642.43,-316.32"/>
<polygon fill="black" stroke="black" stroke-width="0.5" points="641.87,-317.98 647.16,-318.31 643.23,-314.75 641.87,-317.98"/>
</g>
<!-- GSCFRate&#45;&gt;CMSSpreadSwap -->
<g id="edge7" class="edge">
<title>GSCFRate&#45;&gt;CMSSpreadSwap</title>
<path fill="none" stroke="black" stroke-width="0.5" d="M563.56,-266C582.83,-266 606.36,-266 628.1,-266"/>
<polygon fill="black" stroke="black" stroke-width="0.5" points="628.29,-267.75 633.29,-266 628.29,-264.25 628.29,-267.75"/>
</g>
<!-- GeneralSwap&#45;&gt;CMSSpreadSwap -->
<g id="edge5" class="edge">
<title>GeneralSwap&#45;&gt;CMSSpreadSwap</title>
<path fill="none" stroke="black" stroke-width="0.5" d="M561.42,-210.16C586.14,-220.58 618.5,-234.23 645.05,-245.42"/>
<polygon fill="black" stroke="black" stroke-width="0.5" points="644.65,-247.15 649.94,-247.48 646.01,-243.93 644.65,-247.15"/>
</g>
<!-- TARN -->
<g id="node27" class="node">
<title>TARN</title>
<g id="a_node27"><a xlink:href="../Interest_Rate_Products/irproducts.html#irproducts.TARN" xlink:title="TARN" target="_top">
<ellipse fill="white" stroke="#1e90ff" cx="694.86" cy="-122" rx="27.27" ry="27"/>
<text text-anchor="middle" x="694.86" y="-118.9" font-family="Vera Sans, DejaVu Sans, Liberation Sans, Arial, Helvetica, sans" font-size="12.00">TARN</text>
</a>
</g>
</g>
<!-- GeneralSwap&#45;&gt;TARN -->
<g id="edge32" class="edge">
<title>GeneralSwap&#45;&gt;TARN</title>
<path fill="none" stroke="black" stroke-width="0.5" d="M561.42,-177.84C592.65,-164.67 636.1,-146.35 664.59,-134.34"/>
<polygon fill="black" stroke="black" stroke-width="0.5" points="665.46,-135.88 669.38,-132.32 664.1,-132.65 665.46,-135.88"/>
</g>
<!-- Call -->
<g id="node9" class="node">
<title>Call</title>
<g id="a_node9"><a xlink:href="../../pypricing.pricing.html#pricing.structured.Call" xlink:title="Class for instantiating a Call Option." target="_top">
<ellipse fill="white" stroke="#1e90ff" cx="694.86" cy="-698" rx="27" ry="27"/>
<text text-anchor="middle" x="694.86" y="-694.9" font-family="Vera Sans, DejaVu Sans, Liberation Sans, Arial, Helvetica, sans" font-size="12.00">Call</text>
</a>
</g>
</g>
<!-- PayersSwaption -->
<g id="node19" class="node">
<title>PayersSwaption</title>
<g id="a_node19"><a xlink:href="../Interest_Rate_Products/irproducts.html#irproducts.PayersSwaption" xlink:title="PayersSwaption" target="_top">
<ellipse fill="white" stroke="#1e90ff" cx="865.46" cy="-734" rx="56.39" ry="27"/>
<text text-anchor="middle" x="865.46" y="-730.9" font-family="Vera Sans, DejaVu Sans, Liberation Sans, Arial, Helvetica, sans" font-size="12.00">PayersSwaption</text>
</a>
</g>
</g>
<!-- Call&#45;&gt;PayersSwaption -->
<g id="edge20" class="edge">
<title>Call&#45;&gt;PayersSwaption</title>
<path fill="none" stroke="black" stroke-width="0.5" d="M721.47,-703.47C744.46,-708.38 779.01,-715.75 808.39,-722.03"/>
<polygon fill="black" stroke="black" stroke-width="0.5" points="808.17,-723.77 813.43,-723.1 808.9,-720.35 808.17,-723.77"/>
</g>
<!-- Vanilla&#45;&gt;Call -->
<g id="edge8" class="edge">
<title>Vanilla&#45;&gt;Call</title>
<path fill="none" stroke="black" stroke-width="0.5" d="M549.33,-491.63C562.78,-497.6 578.65,-506.36 589.94,-518 614.85,-543.68 608.39,-558.82 625.94,-590 641.92,-618.41 661.98,-649.86 676.14,-671.45"/>
<polygon fill="black" stroke="black" stroke-width="0.5" points="674.69,-672.42 678.89,-675.63 677.61,-670.5 674.69,-672.42"/>
</g>
<!-- Put -->
<g id="node22" class="node">
<title>Put</title>
<g id="a_node22"><a xlink:href="../../pypricing.pricing.html#pricing.structured.Put" xlink:title="Class for instantiating a Put Option." target="_top">
<ellipse fill="white" stroke="#1e90ff" cx="694.86" cy="-554" rx="27" ry="27"/>
<text text-anchor="middle" x="694.86" y="-550.9" font-family="Vera Sans, DejaVu Sans, Liberation Sans, Arial, Helvetica, sans" font-size="12.00">Put</text>
</a>
</g>
</g>
<!-- Vanilla&#45;&gt;Put -->
<g id="edge22" class="edge">
<title>Vanilla&#45;&gt;Put</title>
<path fill="none" stroke="black" stroke-width="0.5" d="M548.66,-492.78C579.88,-505.94 632.53,-528.14 665.12,-541.88"/>
<polygon fill="black" stroke="black" stroke-width="0.5" points="664.49,-543.52 669.78,-543.85 665.85,-540.29 664.49,-543.52"/>
</g>
<!-- ImpVolObject -->
<g id="node11" class="node">
<title>ImpVolObject</title>
<g id="a_node11"><a xlink:href="../../pypricing.pricing.html#pricing.structured.ImpVolObject" xlink:title="ImpVolObject" target="_top">
<ellipse fill="white" stroke="#1e90ff" cx="522.1" cy="-698" rx="47.52" ry="27"/>
<text text-anchor="middle" x="522.1" y="-694.9" font-family="Vera Sans, DejaVu Sans, Liberation Sans, Arial, Helvetica, sans" font-size="12.00">ImpVolObject</text>
</a>
</g>
</g>
<!-- ImpVolObject&#45;&gt;Call -->
<g id="edge9" class="edge">
<title>ImpVolObject&#45;&gt;Call</title>
<path fill="none" stroke="black" stroke-width="0.5" d="M570.21,-698C599.64,-698 636.72,-698 662.56,-698"/>
<polygon fill="black" stroke="black" stroke-width="0.5" points="662.58,-699.75 667.58,-698 662.58,-696.25 662.58,-699.75"/>
</g>
<!-- ImpVolObject&#45;&gt;Put -->
<g id="edge23" class="edge">
<title>ImpVolObject&#45;&gt;Put</title>
<path fill="none" stroke="black" stroke-width="0.5" d="M559.39,-681.08C569.67,-675.61 580.59,-669.09 589.94,-662 622.46,-637.31 654.16,-602.31 673.82,-578.91"/>
<polygon fill="black" stroke="black" stroke-width="0.5" points="675.25,-579.93 677.12,-574.98 672.57,-577.69 675.25,-579.93"/>
</g>
<!-- CumulativeRate -->
<g id="node13" class="node">
<title>CumulativeRate</title>
<g id="a_node13"><a xlink:href="../../pypricing.pricing.html#pricing.ratecurves.CumulativeRate" xlink:title="CumulativeRate" target="_top">
<ellipse fill="white" stroke="#1e90ff" cx="362.36" cy="-122" rx="55.8" ry="27"/>
<text text-anchor="middle" x="362.36" y="-118.9" font-family="Vera Sans, DejaVu Sans, Liberation Sans, Arial, Helvetica, sans" font-size="12.00">CumulativeRate</text>
</a>
</g>
</g>
<!-- TARNRate -->
<g id="node28" class="node">
<title>TARNRate</title>
<g id="a_node28"><a xlink:href="../../pypricing.pricing.html#pricing.ratecurves.TARNRate" xlink:title="TARNRate" target="_top">
<ellipse fill="white" stroke="#1e90ff" cx="522.1" cy="-50" rx="40.91" ry="27"/>
<text text-anchor="middle" x="522.1" y="-46.9" font-family="Vera Sans, DejaVu Sans, Liberation Sans, Arial, Helvetica, sans" font-size="12.00">TARNRate</text>
</a>
</g>
</g>
<!-- CumulativeRate&#45;&gt;TARNRate -->
<g id="edge36" class="edge">
<title>CumulativeRate&#45;&gt;TARNRate</title>
<path fill="none" stroke="black" stroke-width="0.5" d="M403.57,-103.65C428.13,-92.43 459.33,-78.19 483.41,-67.2"/>
<polygon fill="black" stroke="black" stroke-width="0.5" points="484.31,-68.71 488.13,-65.05 482.86,-65.53 484.31,-68.71"/>
</g>
<!-- Rate -->
<g id="node14" class="node">
<title>Rate</title>
<g id="a_node14"><a xlink:href="../../pypricing.pricing.html#pricing.ratecurves.Rate" xlink:title="Rate" target="_top">
<ellipse fill="white" stroke="#1e90ff" cx="225.41" cy="-162" rx="27" ry="27"/>
<text text-anchor="middle" x="225.41" y="-158.9" font-family="Vera Sans, DejaVu Sans, Liberation Sans, Arial, Helvetica, sans" font-size="12.00">Rate</text>
</a>
</g>
</g>
<!-- Rate&#45;&gt;GSCFRate -->
<g id="edge15" class="edge">
<title>Rate&#45;&gt;GSCFRate</title>
<path fill="none" stroke="black" stroke-width="0.5" d="M244.06,-182.02C259.05,-197.67 281.98,-218.62 306.46,-230 361.06,-255.38 430.85,-263.12 475.77,-265.34"/>
<polygon fill="black" stroke="black" stroke-width="0.5" points="475.77,-267.09 480.85,-265.57 475.93,-263.59 475.77,-267.09"/>
</g>
<!-- Rate&#45;&gt;CumulativeRate -->
<g id="edge11" class="edge">
<title>Rate&#45;&gt;CumulativeRate</title>
<path fill="none" stroke="black" stroke-width="0.5" d="M251.48,-154.57C267.71,-149.76 289.44,-143.32 309.3,-137.43"/>
<polygon fill="black" stroke="black" stroke-width="0.5" points="310.01,-139.05 314.3,-135.95 309.01,-135.69 310.01,-139.05"/>
</g>
<!-- SwapRate -->
<g id="node17" class="node">
<title>SwapRate</title>
<g id="a_node17"><a xlink:href="../../pypricing.pricing.html#pricing.ratecurves.SwapRate" xlink:title="SwapRate" target="_top">
<ellipse fill="white" stroke="#1e90ff" cx="362.36" cy="-194" rx="39.74" ry="27"/>
<text text-anchor="middle" x="362.36" y="-190.9" font-family="Vera Sans, DejaVu Sans, Liberation Sans, Arial, Helvetica, sans" font-size="12.00">SwapRate</text>
</a>
</g>
</g>
<!-- Rate&#45;&gt;SwapRate -->
<g id="edge30" class="edge">
<title>Rate&#45;&gt;SwapRate</title>
<path fill="none" stroke="black" stroke-width="0.5" d="M251.79,-168.02C270.89,-172.55 297.47,-178.85 319.67,-184.11"/>
<polygon fill="black" stroke="black" stroke-width="0.5" points="319.35,-185.84 324.62,-185.29 320.16,-182.43 319.35,-185.84"/>
</g>
<!-- KnockOutRate -->
<g id="node18" class="node">
<title>KnockOutRate</title>
<g id="a_node18"><a xlink:href="../../pypricing.pricing.html#pricing.ratecurves.KnockOutRate" xlink:title="KnockOutRate" target="_top">
<ellipse fill="white" stroke="#1e90ff" cx="362.36" cy="-50" rx="51.62" ry="27"/>
<text text-anchor="middle" x="362.36" y="-46.9" font-family="Vera Sans, DejaVu Sans, Liberation Sans, Arial, Helvetica, sans" font-size="12.00">KnockOutRate</text>
</a>
</g>
</g>
<!-- Rate&#45;&gt;KnockOutRate -->
<g id="edge18" class="edge">
<title>Rate&#45;&gt;KnockOutRate</title>
<path fill="none" stroke="black" stroke-width="0.5" d="M244.63,-142.88C260.31,-126.87 283.92,-103.85 306.46,-86 311.87,-81.71 317.79,-77.44 323.68,-73.41"/>
<polygon fill="black" stroke="black" stroke-width="0.5" points="325,-74.63 328.17,-70.39 323.04,-71.73 325,-74.63"/>
</g>
<!-- Structured -->
<g id="node15" class="node">
<title>Structured</title>
<g id="a_node15"><a xlink:href="../../pypricing.pricing.html#pricing.structured.Structured" xlink:title="Structured" target="_top">
<ellipse fill="white" stroke="#1e90ff" cx="225.41" cy="-434" rx="38.57" ry="27"/>
<text text-anchor="middle" x="225.41" y="-430.9" font-family="Vera Sans, DejaVu Sans, Liberation Sans, Arial, Helvetica, sans" font-size="12.00">Structured</text>
</a>
</g>
</g>
<!-- Structured&#45;&gt;Derivative -->
<g id="edge12" class="edge">
<title>Structured&#45;&gt;Derivative</title>
<path fill="none" stroke="black" stroke-width="0.5" d="M254.7,-451.61C276.29,-465.05 306.07,-483.59 328.68,-497.66"/>
<polygon fill="black" stroke="black" stroke-width="0.5" points="327.93,-499.26 333.1,-500.41 329.78,-496.29 327.93,-499.26"/>
</g>
<!-- MultiRate -->
<g id="node16" class="node">
<title>MultiRate</title>
<g id="a_node16"><a xlink:href="../../pypricing.pricing.html#pricing.ratecurves.MultiRate" xlink:title="MultiRate" target="_top">
<ellipse fill="white" stroke="#1e90ff" cx="72.18" cy="-162" rx="36.81" ry="27"/>
<text text-anchor="middle" x="72.18" y="-158.9" font-family="Vera Sans, DejaVu Sans, Liberation Sans, Arial, Helvetica, sans" font-size="12.00">MultiRate</text>
</a>
</g>
</g>
<!-- MultiRate&#45;&gt;DifferenceRate -->
<g id="edge13" class="edge">
<title>MultiRate&#45;&gt;DifferenceRate</title>
<path fill="none" stroke="black" stroke-width="0.5" d="M104.33,-175.44C148.91,-194.55 233.56,-230.44 306.46,-259 363.42,-281.31 429.55,-305.38 473.19,-321.01"/>
<polygon fill="black" stroke="black" stroke-width="0.5" points="472.84,-322.74 478.14,-322.78 474.02,-319.45 472.84,-322.74"/>
</g>
<!-- MultiRate&#45;&gt;Rate -->
<g id="edge25" class="edge">
<title>MultiRate&#45;&gt;Rate</title>
<path fill="none" stroke="black" stroke-width="0.5" d="M109.4,-162C134.86,-162 168.57,-162 192.91,-162"/>
<polygon fill="black" stroke="black" stroke-width="0.5" points="192.95,-163.75 197.95,-162 192.95,-160.25 192.95,-163.75"/>
</g>
<!-- ProductRate -->
<g id="node21" class="node">
<title>ProductRate</title>
<g id="a_node21"><a xlink:href="../../pypricing.pricing.html#pricing.ratecurves.ProductRate" xlink:title="ProductRate" target="_top">
<ellipse fill="white" stroke="#1e90ff" cx="225.41" cy="-27" rx="45.09" ry="27"/>
<text text-anchor="middle" x="225.41" y="-23.9" font-family="Vera Sans, DejaVu Sans, Liberation Sans, Arial, Helvetica, sans" font-size="12.00">ProductRate</text>
</a>
</g>
</g>
<!-- MultiRate&#45;&gt;ProductRate -->
<g id="edge21" class="edge">
<title>MultiRate&#45;&gt;ProductRate</title>
<path fill="none" stroke="black" stroke-width="0.5" d="M96.48,-141.2C123.2,-117.35 167.02,-78.23 195.79,-52.54"/>
<polygon fill="black" stroke="black" stroke-width="0.5" points="197.01,-53.8 199.58,-49.17 194.68,-51.19 197.01,-53.8"/>
</g>
<!-- SwapRate&#45;&gt;GeneralSwap -->
<g id="edge16" class="edge">
<title>SwapRate&#45;&gt;GeneralSwap</title>
<path fill="none" stroke="black" stroke-width="0.5" d="M402.35,-194C422.11,-194 446.41,-194 467.87,-194"/>
<polygon fill="black" stroke="black" stroke-width="0.5" points="467.97,-195.75 472.97,-194 467.97,-192.25 467.97,-195.75"/>
</g>
<!-- Swap -->
<g id="node26" class="node">
<title>Swap</title>
<g id="a_node26"><a xlink:href="../Interest_Rate_Products/irproducts.html#irproducts.Swap" xlink:title="Swap" target="_top">
<ellipse fill="white" stroke="#1e90ff" cx="522.1" cy="-122" rx="27" ry="27"/>
<text text-anchor="middle" x="522.1" y="-118.9" font-family="Vera Sans, DejaVu Sans, Liberation Sans, Arial, Helvetica, sans" font-size="12.00">Swap</text>
</a>
</g>
</g>
<!-- SwapRate&#45;&gt;Swap -->
<g id="edge28" class="edge">
<title>SwapRate&#45;&gt;Swap</title>
<path fill="none" stroke="black" stroke-width="0.5" d="M395.66,-179.26C424.12,-166.27 465.18,-147.52 492.48,-135.06"/>
<polygon fill="black" stroke="black" stroke-width="0.5" points="493.25,-136.63 497.07,-132.97 491.79,-133.45 493.25,-136.63"/>
</g>
<!-- KnockOutRate&#45;&gt;TARNRate -->
<g id="edge35" class="edge">
<title>KnockOutRate&#45;&gt;TARNRate</title>
<path fill="none" stroke="black" stroke-width="0.5" d="M414.13,-50C433.97,-50 456.54,-50 475.82,-50"/>
<polygon fill="black" stroke="black" stroke-width="0.5" points="476.16,-51.75 481.16,-50 476.16,-48.25 476.16,-51.75"/>
</g>
<!-- Swaption&#45;&gt;PayersSwaption -->
<g id="edge19" class="edge">
<title>Swaption&#45;&gt;PayersSwaption</title>
<path fill="none" stroke="black" stroke-width="0.5" d="M727.57,-785.15C752.37,-775.88 787.27,-762.84 815.63,-752.25"/>
<polygon fill="black" stroke="black" stroke-width="0.5" points="816.41,-753.82 820.48,-750.43 815.18,-750.54 816.41,-753.82"/>
</g>
<!-- ProductRate&#45;&gt;TARNRate -->
<g id="edge34" class="edge">
<title>ProductRate&#45;&gt;TARNRate</title>
<path fill="none" stroke="black" stroke-width="0.5" d="M268.23,-18.54C307.29,-11.97 367.08,-5.3 418.26,-14 440.26,-17.74 463.83,-25.68 482.85,-33.16"/>
<polygon fill="black" stroke="black" stroke-width="0.5" points="482.29,-34.82 487.58,-35.04 483.58,-31.57 482.29,-34.82"/>
</g>
<!-- ReceiversSwaption -->
<g id="node24" class="node">
<title>ReceiversSwaption</title>
<g id="a_node24"><a xlink:href="../Interest_Rate_Products/irproducts.html#irproducts.ReceiversSwaption" xlink:title="ReceiversSwaption" target="_top">
<ellipse fill="white" stroke="#1e90ff" cx="865.46" cy="-554" rx="65.84" ry="27"/>
<text text-anchor="middle" x="865.46" y="-550.9" font-family="Vera Sans, DejaVu Sans, Liberation Sans, Arial, Helvetica, sans" font-size="12.00">ReceiversSwaption</text>
</a>
</g>
</g>
<!-- Put&#45;&gt;ReceiversSwaption -->
<g id="edge26" class="edge">
<title>Put&#45;&gt;ReceiversSwaption</title>
<path fill="none" stroke="black" stroke-width="0.5" d="M722.2,-554C741.65,-554 769.08,-554 794.66,-554"/>
<polygon fill="black" stroke="black" stroke-width="0.5" points="794.75,-555.75 799.75,-554 794.75,-552.25 794.75,-555.75"/>
</g>
<!-- ToleranceTableObject -->
<g id="node25" class="node">
<title>ToleranceTableObject</title>
<g id="a_node25"><a xlink:href="../../pypricing.pricing.html#pricing.excel_stuff.ToleranceTableObject" xlink:title="ToleranceTableObject" target="_top">
<ellipse fill="white" stroke="#1e90ff" cx="72.18" cy="-362" rx="72.36" ry="27"/>
<text text-anchor="middle" x="72.18" y="-358.9" font-family="Vera Sans, DejaVu Sans, Liberation Sans, Arial, Helvetica, sans" font-size="12.00">ToleranceTableObject</text>
</a>
</g>
</g>
<!-- ToleranceTableObject&#45;&gt;Structured -->
<g id="edge27" class="edge">
<title>ToleranceTableObject&#45;&gt;Structured</title>
<path fill="none" stroke="black" stroke-width="0.5" d="M117.74,-383.21C140.26,-393.93 167.22,-406.77 188.41,-416.86"/>
<polygon fill="black" stroke="black" stroke-width="0.5" points="187.84,-418.53 193.11,-419.1 189.35,-415.37 187.84,-418.53"/>
</g>
<!-- ToleranceTableObject&#45;&gt;Swap -->
<g id="edge29" class="edge">
<title>ToleranceTableObject&#45;&gt;Swap</title>
<path fill="none" stroke="black" stroke-width="0.5" d="M139.17,-351.58C214.75,-336.6 338.41,-302.36 418.26,-230 444.77,-205.98 429.34,-183.68 454.26,-158 464.72,-147.22 479.12,-138.9 491.87,-132.99"/>
<polygon fill="black" stroke="black" stroke-width="0.5" points="492.64,-134.56 496.49,-130.92 491.21,-131.37 492.64,-134.56"/>
</g>
<!-- TARNRate&#45;&gt;TARN -->
<g id="edge33" class="edge">
<title>TARNRate&#45;&gt;TARN</title>
<path fill="none" stroke="black" stroke-width="0.5" d="M556.83,-64.22C588.39,-77.53 635.02,-97.19 664.92,-109.8"/>
<polygon fill="black" stroke="black" stroke-width="0.5" points="664.28,-111.43 669.57,-111.76 665.64,-108.2 664.28,-111.43"/>
</g>
</g>
</svg>
